<svg width="72" height="72" viewBox="0 0 72 72" fill="none" xmlns="http://www.w3.org/2000/svg">
<circle cx="36" cy="36" r="36" fill="#F5F5F5"/>
<g clip-path="url(#clip0_363_202)">
<path d="M26.0602 12.168C23.5066 12.2884 21.7628 12.696 20.2382 13.2948C18.6606 13.9098 17.3232 14.7348 15.9926 16.0702C14.6622 17.4056 13.8426 18.7438 13.2322 20.3242C12.6414 21.8518 12.241 23.5972 12.1282 26.1522C12.0154 28.7072 11.9904 29.5286 12.003 36.0462C12.0154 42.5634 12.0442 43.3804 12.168 45.9408C12.29 48.4938 12.696 50.2372 13.295 51.7622C13.911 53.34 14.735 54.6768 16.071 56.0078C17.4068 57.3388 18.744 58.1564 20.328 58.7678C21.8544 59.3578 23.6002 59.76 26.1548 59.8718C28.7094 59.9838 29.5316 60.0098 36.0472 59.9972C42.5628 59.9848 43.3832 59.9558 45.9428 59.8344C48.5028 59.713 50.2368 59.304 51.7624 58.7078C53.3402 58.0906 54.678 57.2678 56.008 55.9316C57.338 54.5952 58.157 53.256 58.767 51.6748C59.3584 50.1484 59.7602 48.4028 59.871 45.85C59.983 43.2882 60.0094 42.4704 59.997 35.954C59.9844 29.4374 59.955 28.6204 59.8336 26.061C59.7122 23.5016 59.3056 21.7636 58.707 20.2376C58.0902 18.6598 57.267 17.324 55.9318 15.992C54.5964 14.66 53.256 13.8416 51.6756 13.233C50.148 12.642 48.4034 12.2394 45.8488 12.129C43.2942 12.0186 42.472 11.99 35.954 12.0028C29.436 12.0152 28.62 12.0432 26.0602 12.168ZM26.3406 55.5542C24.0006 55.4524 22.73 55.0636 21.8832 54.7382C20.762 54.3062 19.9632 53.784 19.1194 52.9482C18.2754 52.1126 17.7572 51.311 17.3194 50.1922C16.9906 49.3454 16.5946 48.0762 16.4852 45.7362C16.3662 43.2072 16.3412 42.4478 16.3272 36.0402C16.3132 29.6328 16.3378 28.8742 16.4486 26.3442C16.5486 24.0062 16.9398 22.7342 17.2646 21.8878C17.6966 20.7652 18.217 19.9678 19.0546 19.1246C19.8922 18.2812 20.6914 17.7618 21.8112 17.324C22.6572 16.9938 23.9262 16.6012 26.2652 16.4898C28.7962 16.3698 29.5546 16.3458 35.9612 16.3318C42.3678 16.3178 43.1282 16.3418 45.6602 16.4534C47.9982 16.555 49.2708 16.9424 50.1162 17.2694C51.2378 17.7014 52.0362 18.2202 52.8794 19.0594C53.7228 19.8982 54.2426 20.6946 54.6804 21.8168C55.011 22.6602 55.4038 23.9288 55.5142 26.2694C55.6346 28.8004 55.662 29.5594 55.6734 35.9654C55.685 42.3714 55.6624 43.1322 55.5514 45.6614C55.4494 48.0014 55.0614 49.2724 54.7354 50.1202C54.3034 51.241 53.7828 52.0402 52.9446 52.883C52.1066 53.726 51.3084 54.2452 50.188 54.683C49.3432 55.0128 48.0726 55.4064 45.7356 55.5178C43.2044 55.6368 42.446 55.6618 36.037 55.6758C29.628 55.6898 28.8716 55.6638 26.3406 55.5542ZM45.906 23.1728C45.9069 23.7425 46.0768 24.2991 46.3941 24.7722C46.7114 25.2453 47.1619 25.6137 47.6885 25.8307C48.2152 26.0478 48.7945 26.1038 49.353 25.9917C49.9115 25.8795 50.4242 25.6042 50.8262 25.2007C51.2283 24.7971 51.5016 24.2834 51.6117 23.7244C51.7218 23.1655 51.6636 22.5865 51.4445 22.0606C51.2255 21.5348 50.8554 21.0857 50.3811 20.7702C49.9068 20.4546 49.3496 20.2868 48.78 20.288C48.0163 20.2896 47.2846 20.5944 46.7457 21.1354C46.2067 21.6764 45.9047 22.4092 45.906 23.1728ZM23.677 36.024C23.6904 42.8304 29.2182 48.3354 36.023 48.3226C42.8282 48.3096 48.337 42.7824 48.3242 35.976C48.3112 29.1696 42.7822 23.663 35.9762 23.6764C29.1702 23.6898 23.6642 29.2184 23.677 36.024ZM28 36.0154C27.9968 34.4332 28.463 32.8856 29.3394 31.5682C30.2159 30.2509 31.4633 29.2231 32.9239 28.6147C34.3844 28.0063 35.9927 27.8447 37.5451 28.1503C39.0975 28.4559 40.5245 29.215 41.6455 30.3316C42.7666 31.4482 43.5313 32.8721 43.8431 34.4233C44.1549 35.9745 43.9997 37.5834 43.3971 39.0464C42.7945 40.5094 41.7716 41.7608 40.4578 42.6425C39.144 43.5242 37.5982 43.9965 36.016 43.9996C34.9653 44.0018 33.9246 43.7971 32.9531 43.397C31.9816 42.9969 31.0985 42.4094 30.3541 41.668C29.6097 40.9265 29.0187 40.0457 28.6148 39.0759C28.2108 38.106 28.0019 37.0661 28 36.0154Z" fill="#6C3427"/>
</g>
<defs>
<clipPath id="clip0_363_202">
<rect width="48" height="48" fill="white" transform="translate(12 12)"/>
</clipPath>
</defs>
</svg>
