<svg width="72" height="72" viewBox="0 0 72 72" fill="none" xmlns="http://www.w3.org/2000/svg">
<circle cx="36" cy="36" r="36" fill="#F5F5F5"/>
<g clip-path="url(#clip0_363_198)">
<path d="M30.202 59.3819V43.4219H25.254V36.0879H30.202V32.9279C30.202 24.7579 33.898 20.9719 41.918 20.9719C42.72 20.9719 43.828 21.0559 44.854 21.1779C45.6225 21.257 46.3849 21.3873 47.136 21.5679V28.2179C46.7017 28.1774 46.2661 28.1534 45.83 28.1459C45.3414 28.1332 44.8527 28.1272 44.364 28.1279C42.95 28.1279 41.846 28.3199 41.014 28.7459C40.4547 29.0265 39.9845 29.4572 39.656 29.9899C39.14 30.8299 38.908 31.9799 38.908 33.4939V36.0879H46.746L45.974 40.2939L45.4 43.4219H38.908V59.9119C50.792 58.4759 60 48.3579 60 36.0879C60 22.8339 49.254 12.0879 36 12.0879C22.746 12.0879 12 22.8339 12 36.0879C12 47.3439 19.748 56.7879 30.202 59.3819Z" fill="#6C3427"/>
</g>
<defs>
<clipPath id="clip0_363_198">
<rect width="48" height="48" fill="white" transform="translate(12 12)"/>
</clipPath>
</defs>
</svg>
