<svg width="68" height="24" viewBox="0 0 68 24" fill="none" xmlns="http://www.w3.org/2000/svg">
<path d="M37.2807 0.615628C37.3363 0.658336 37.3872 0.704528 37.4377 0.753126C37.4573 0.771615 37.4573 0.771615 37.4774 0.790477C37.5669 0.875772 37.6495 0.963581 37.7268 1.0603C37.7411 1.07813 37.7555 1.09596 37.7702 1.11433C38.0133 1.41791 38.2189 1.72158 38.3874 2.07274C38.4037 2.10565 38.4218 2.1377 38.4403 2.16942C38.5071 2.28879 38.511 2.4051 38.5133 2.53913C38.5137 2.55723 38.5141 2.57532 38.5146 2.59397C38.5132 2.71829 38.4877 2.78638 38.4076 2.8858C38.3926 2.90634 38.3776 2.92689 38.3621 2.94806C38.0465 3.30499 37.4365 3.44146 36.996 3.56451C36.8949 3.59292 36.7965 3.62415 36.6982 3.66105C36.6061 3.69556 36.5169 3.71937 36.4207 3.73866C36.3333 3.75922 36.2495 3.78965 36.1651 3.81966C36.0701 3.84952 35.9743 3.87296 35.8776 3.89661C35.7788 3.92127 35.6806 3.94828 35.5824 3.97525C35.3323 4.04383 35.0826 4.10584 34.8281 4.156C34.7464 4.17104 34.7464 4.17104 34.6747 4.19641C34.6747 4.21186 34.6747 4.2273 34.6747 4.24322C34.6907 4.24804 34.7067 4.25287 34.7231 4.25785C34.875 4.32873 34.9842 4.43632 35.0528 4.5897C35.1674 4.99774 35.0022 5.3941 34.839 5.76447C35.2577 5.74217 35.6705 5.69831 36.0858 5.64328C36.1246 5.63815 36.1633 5.63301 36.2021 5.62788C36.2207 5.62542 36.2393 5.62295 36.2585 5.62041C36.4137 5.60002 36.5691 5.58366 36.7249 5.56946C36.8854 5.55448 37.0445 5.532 37.2041 5.50943C37.3478 5.48946 37.4913 5.47412 37.6358 5.46168C37.8603 5.4422 38.0823 5.41032 38.3051 5.37739C38.4682 5.35363 38.6308 5.33367 38.795 5.31979C39.0177 5.30094 39.2378 5.26949 39.4589 5.23697C39.63 5.21198 39.8007 5.19085 39.9729 5.17454C40.1752 5.15453 40.3759 5.12371 40.5768 5.09325C41.0232 5.027 41.383 5.16254 41.7431 5.42557C42.2586 5.81948 42.9636 6.44361 43.0796 7.12189C43.1058 7.45237 43.1058 7.45237 43.0092 7.56656C42.861 7.65059 42.7238 7.64602 42.5563 7.644C42.5275 7.64393 42.4986 7.64387 42.4688 7.6438C42.406 7.64362 42.3432 7.6433 42.2803 7.64277C42.1796 7.64192 42.0788 7.64156 41.978 7.64128C41.8343 7.64083 41.6906 7.64016 41.5469 7.63937C41.1932 7.63743 40.8395 7.63696 40.4858 7.63656C40.4305 7.63649 40.3753 7.63642 40.32 7.63635C39.7528 7.63563 39.1859 7.63783 38.6189 7.65432C38.6023 7.6548 38.5857 7.65528 38.5686 7.65577C37.8799 7.67594 37.1926 7.72159 36.5059 7.77719C36.5773 7.83676 36.644 7.88517 36.7286 7.92374C36.7583 7.9375 36.7583 7.9375 36.7886 7.95154C36.8096 7.9611 36.8306 7.97066 36.8522 7.98051C37.0107 8.05403 37.1668 8.12985 37.3203 8.21309C37.4901 8.30477 37.6641 8.38375 37.8413 8.46002C37.9211 8.49462 37.9988 8.53229 38.0763 8.57151C38.1709 8.61885 38.2666 8.66372 38.3621 8.70896C38.3837 8.71917 38.4052 8.72939 38.4274 8.73991C38.8031 8.91777 38.8031 8.91777 39.1824 9.0878C39.2112 9.10045 39.2399 9.11309 39.2687 9.12574C39.4339 9.19817 39.5994 9.26929 39.7663 9.33784C39.8379 9.36787 39.9089 9.39898 39.9799 9.43035C40.1187 9.49165 40.2571 9.54895 40.4005 9.59885C40.5206 9.6436 40.638 9.69462 40.7556 9.74535C40.879 9.79805 41.0033 9.84238 41.131 9.88353C41.1702 9.89745 41.2093 9.91156 41.2484 9.92595C41.3446 9.96115 41.441 9.99534 41.5378 10.0291C41.7891 10.1167 41.7891 10.1167 41.9116 10.1673C42.0167 10.2101 42.1236 10.2427 42.2323 10.2751C42.3098 10.2986 42.3865 10.324 42.4632 10.3499C42.4876 10.3581 42.5119 10.3663 42.537 10.3747C42.5854 10.3911 42.6338 10.4075 42.6821 10.424C42.8239 10.4718 42.9655 10.5123 43.1111 10.5466C43.1695 10.5612 43.2254 10.5788 43.2821 10.5988C43.3532 10.6235 43.4223 10.6409 43.4963 10.6544C43.5886 10.6714 43.6756 10.6958 43.7648 10.7246C43.9631 10.7871 44.1653 10.8231 44.3696 10.8597C45.212 11.0118 45.212 11.0118 45.3804 11.2176C45.4184 11.2934 45.4171 11.3696 45.4038 11.4516C45.2971 11.6179 45.1327 11.7236 44.9521 11.798C44.8489 11.8427 44.7492 11.8944 44.649 11.9453C44.5498 11.9953 44.4498 12.0405 44.3474 12.0835C44.3087 12.1009 44.27 12.1185 44.2314 12.1362C44.1209 12.1865 44.0098 12.2354 43.8984 12.2839C43.8821 12.2909 43.8659 12.298 43.8492 12.3053C43.7825 12.3343 43.7158 12.3633 43.6491 12.3923C43.5531 12.4344 43.4591 12.4787 43.3664 12.5275C43.2882 12.5637 43.2074 12.5922 43.1265 12.6218C43.0792 12.6393 43.0319 12.6569 42.9845 12.6744C42.9529 12.6862 42.9213 12.6979 42.8897 12.7095C42.8136 12.7379 42.7383 12.7672 42.6638 12.7996C42.6023 12.8257 42.5435 12.8477 42.4795 12.8661C42.4594 12.8718 42.4394 12.8776 42.4188 12.8836C42.3967 12.8899 42.3746 12.8962 42.3518 12.9026C42.3265 12.9099 42.3013 12.9171 42.2752 12.9246C42.2088 12.9435 42.1424 12.9625 42.0759 12.9811C42.0342 12.993 41.9927 13.0056 41.9512 13.0183C41.7533 13.0776 41.5589 13.1165 41.354 13.1425C41.3234 13.1464 41.2928 13.1503 41.2613 13.1544C40.5871 13.2368 39.8895 13.1745 39.3232 12.7622C39.3232 12.7468 39.3232 12.7313 39.3232 12.7154C39.2985 12.707 39.2985 12.707 39.2732 12.6984C39.1945 12.6636 39.1345 12.6187 39.0664 12.5662C38.9939 12.5104 38.9221 12.4561 38.8448 12.4073C38.8143 12.386 38.8143 12.386 38.7832 12.3643C38.7832 12.3489 38.7832 12.3334 38.7832 12.3175C38.768 12.3129 38.7529 12.3083 38.7372 12.3035C38.6349 12.2565 38.5519 12.189 38.4634 12.1201C38.4454 12.1063 38.4275 12.0926 38.4091 12.0785C38.2769 11.9767 38.2769 11.9767 38.2291 11.9286C38.1907 11.8907 38.1515 11.8714 38.1024 11.8495C38.1024 11.834 38.1024 11.8186 38.1024 11.8026C38.0844 11.7947 38.0844 11.7947 38.0661 11.7866C37.9855 11.7436 37.9126 11.6916 37.8383 11.6388C37.823 11.6283 37.8078 11.6177 37.7921 11.6068C37.7537 11.5797 37.7167 11.5509 37.6798 11.5218C37.6798 11.5064 37.6798 11.4909 37.6798 11.475C37.6609 11.4687 37.642 11.4624 37.6226 11.456C37.6027 11.4468 37.5829 11.4376 37.5624 11.4282C37.5547 11.405 37.5469 11.3818 37.5389 11.358C37.5 11.3418 37.4609 11.3263 37.4216 11.3112C37.3713 11.2714 37.3713 11.2714 37.3218 11.2249C37.2312 11.1415 37.1371 11.0667 37.0378 10.9939C37.025 10.9828 37.0122 10.9716 36.999 10.9601C36.999 10.9447 36.999 10.9292 36.999 10.9133C36.9856 10.9113 36.9722 10.9093 36.9584 10.9073C36.8893 10.8848 36.8548 10.8494 36.8023 10.7992C36.7056 10.7096 36.6059 10.6268 36.5015 10.5462C36.265 10.3627 36.265 10.3627 36.1773 10.2814C36.1773 10.266 36.1773 10.2505 36.1773 10.2346C36.1632 10.2327 36.1492 10.2307 36.1347 10.2287C36.0687 10.2062 36.0533 10.173 36.0129 10.1176C35.9818 10.1016 35.9505 10.086 35.919 10.0708C35.8871 10.0401 35.856 10.0088 35.8251 9.97715C35.7806 9.93752 35.7355 9.89864 35.6904 9.85967C35.6344 9.81078 35.5793 9.76091 35.5243 9.71093C35.4189 9.61566 35.3092 9.52706 35.1971 9.43987C35.1458 9.39349 35.1258 9.35971 35.0973 9.29844C35.0585 9.28214 35.0193 9.26659 34.9799 9.25163C34.9476 9.22152 34.9164 9.1901 34.886 9.15802C34.8578 9.13325 34.8294 9.10876 34.8007 9.08451C34.7859 9.07196 34.7711 9.0594 34.7559 9.04646C34.7446 9.03693 34.7333 9.02741 34.7217 9.01759C34.719 9.29218 34.722 9.56603 34.7317 9.84047C34.794 11.6206 34.794 11.6206 34.5338 12.4111C34.7573 12.3899 34.9749 12.3656 35.193 12.3107C35.2565 12.2954 35.3189 12.2848 35.3834 12.2751C35.5049 12.2539 35.6201 12.2183 35.7371 12.18C35.7637 12.1714 35.7637 12.1714 35.7909 12.1627C35.877 12.1337 35.9549 12.1019 36.0331 12.0555C36.1068 12.0133 36.1068 12.0133 36.1773 12.0133C36.1824 11.9994 36.1876 11.9855 36.1929 11.9711C36.2342 11.9032 36.2788 11.8819 36.3489 11.8451C36.3711 11.8331 36.3933 11.8212 36.4162 11.809C36.7383 11.6646 37.13 11.7768 37.4446 11.8895C37.5408 11.9264 37.6339 11.9689 37.7268 12.0133C37.7543 12.0263 37.7818 12.0394 37.8101 12.0529C37.9908 12.1408 38.165 12.2376 38.3372 12.3409C38.3563 12.352 38.3755 12.363 38.3952 12.3744C38.4642 12.4171 38.5279 12.4645 38.5925 12.5135C38.6704 12.5724 38.7483 12.6308 38.8287 12.6861C38.8995 12.738 38.9576 12.7925 39.018 12.8558C39.0384 12.8751 39.0587 12.8944 39.0796 12.9143C39.1331 12.9704 39.1662 13.024 39.2058 13.0899C39.2327 13.1159 39.2327 13.1159 39.2601 13.1425C39.4522 13.3385 39.5676 13.5851 39.5883 13.8581C39.5867 13.9666 39.548 14.0448 39.4964 14.1386C39.4878 14.1549 39.4793 14.1711 39.4705 14.1878C39.4453 14.2355 39.4196 14.2829 39.3937 14.3303C39.3803 14.355 39.3669 14.3797 39.3531 14.4051C39.33 14.4475 39.3068 14.4898 39.2834 14.532C39.1476 14.7788 39.0535 15.0004 39.0369 15.2844C39.0351 15.3103 39.0333 15.3362 39.0314 15.3628C39.0256 15.4462 39.0203 15.5297 39.0151 15.6131C39.0112 15.6709 39.0072 15.7286 39.0033 15.7864C38.9956 15.899 38.9881 16.0116 38.9808 16.1243C38.9732 16.2414 38.965 16.3585 38.9564 16.4756C38.9328 16.7958 38.9153 17.1162 38.8993 17.4368C38.8848 17.7245 38.8649 18.0115 38.8419 18.2987C38.8149 18.6378 38.796 18.9768 38.7818 19.3167C38.7799 19.3615 38.778 19.4063 38.7761 19.4511C38.7751 19.473 38.7742 19.4948 38.7733 19.5173C38.7024 21.184 38.7024 21.184 38.4076 21.5386C38.3921 21.5386 38.3766 21.5386 38.3606 21.5386C38.3592 21.5517 38.3577 21.5647 38.3562 21.5781C38.3292 21.655 38.2791 21.6944 38.2198 21.7493C38.2002 21.7703 38.2002 21.7703 38.1802 21.7917C38.1494 21.8195 38.1494 21.8195 38.1024 21.8195C38.0975 21.8324 38.0927 21.8453 38.0876 21.8586C38.0436 21.9331 37.9822 21.9818 37.916 22.036C37.9024 22.0472 37.8888 22.0585 37.8747 22.0702C37.3637 22.4896 36.8517 22.7567 36.1773 22.7088C35.9634 22.6816 35.7811 22.5613 35.6399 22.4011C35.5419 22.2569 35.51 22.0968 35.474 21.9295C35.4107 21.6381 35.3255 21.3591 35.1825 21.0966C35.1391 21.0169 35.1128 20.9489 35.0973 20.8599C34.5195 20.8827 33.9461 20.9223 33.3711 20.9842C33.2267 20.9997 33.0821 21.0136 32.9374 21.0267C32.7411 21.0448 32.5458 21.0681 32.3505 21.094C32.3515 21.1102 32.3526 21.1264 32.3538 21.143C32.3614 21.3509 32.317 21.5296 32.2565 21.7259C32.2481 21.7556 32.2481 21.7556 32.2396 21.7859C32.1689 22.0218 32.0405 22.2381 31.8574 22.4046C31.8419 22.4046 31.8264 22.4046 31.8105 22.4046C31.8053 22.4185 31.8001 22.4324 31.7947 22.4467C31.7537 22.5144 31.7099 22.5359 31.6403 22.5728C31.6184 22.5847 31.5964 22.5966 31.5739 22.6089C31.3591 22.7019 31.068 22.6882 30.8479 22.6152C30.7123 22.5583 30.5804 22.4934 30.4488 22.428C30.4488 22.4125 30.4488 22.3971 30.4488 22.3812C30.4286 22.3759 30.4084 22.3706 30.3876 22.3652C30.2964 22.3299 30.232 22.2796 30.1597 22.2159C30.1464 22.2044 30.1331 22.1928 30.1194 22.181C29.9201 22.0065 29.7552 21.8265 29.6036 21.6088C29.5831 21.5815 29.5625 21.5542 29.542 21.5269C29.4208 21.3545 29.3357 21.1741 29.2676 20.9755C29.2616 20.9584 29.2556 20.9412 29.2495 20.9236C29.1746 20.6951 29.1781 20.4644 29.1807 20.226C29.1814 20.1565 29.1818 20.087 29.1822 20.0174C29.1824 19.9805 29.1827 19.9435 29.1829 19.9065C29.1874 19.221 29.1768 18.5408 29.124 17.8569C29.114 17.7276 29.1058 17.5985 29.0996 17.469C29.0782 17.0323 29.0368 16.5993 28.9877 16.1648C28.9826 16.12 28.9776 16.0753 28.9726 16.0305C28.9701 16.0088 28.9677 15.9872 28.9652 15.9649C28.9513 15.8382 28.941 15.712 28.9345 15.5847C28.9242 15.398 28.8965 15.2165 28.8655 15.0324C28.8552 14.97 28.845 14.9076 28.8348 14.8451C28.831 14.822 28.831 14.822 28.8272 14.7984C28.8094 14.6886 28.7953 14.5787 28.7824 14.4682C28.7614 14.2928 28.7287 14.1211 28.6909 13.9485C28.6852 13.9211 28.6795 13.8937 28.6736 13.8654C28.6408 13.7134 28.599 13.5707 28.5435 13.4254C28.5006 13.3073 28.4959 13.1911 28.4943 13.0665C28.4934 13.0252 28.4934 13.0252 28.4925 12.9831C28.5011 12.8932 28.523 12.8385 28.5706 12.7622C28.6271 12.7228 28.673 12.6957 28.7349 12.6686C28.7487 12.6623 28.7624 12.656 28.7765 12.6494C28.9557 12.579 29.1413 12.5866 29.3307 12.5881C29.3487 12.5882 29.3667 12.5882 29.3852 12.5883C30.491 12.5936 30.491 12.5936 30.707 12.809C30.7633 12.812 30.8186 12.8133 30.8749 12.8132C30.9013 12.8132 30.9013 12.8132 30.9284 12.8131C31.1425 12.8109 31.3552 12.7915 31.5683 12.7716C31.6374 12.7651 31.7065 12.7589 31.7756 12.7528C32.0229 12.7305 32.269 12.7042 32.5148 12.6686C32.5033 12.6589 32.4918 12.6493 32.48 12.6393C32.226 12.4259 31.8376 12.0769 31.787 11.7324C31.7715 11.7324 31.756 11.7324 31.74 11.7324C31.6757 11.6163 31.6407 11.5016 31.608 11.3741C31.6004 11.3458 31.6004 11.3458 31.5926 11.3171C31.5027 10.9734 31.5291 10.632 31.5522 10.2814C31.5421 10.2964 31.5319 10.3113 31.5214 10.3267C31.4818 10.375 31.4818 10.375 31.4114 10.3984C31.3983 10.4148 31.3852 10.4312 31.3717 10.4482C31.3 10.5371 31.2166 10.6054 31.1296 10.6793C31.1008 10.7042 31.072 10.7292 31.0432 10.7541C31.0119 10.7814 30.9805 10.8086 30.9491 10.8358C30.9341 10.8489 30.919 10.8619 30.9035 10.8754C30.8237 10.9444 30.7431 11.0118 30.6601 11.0771C30.6276 11.1041 30.5952 11.131 30.5628 11.158C30.3941 11.2979 30.2238 11.4354 30.0497 11.5686C30.0327 11.582 30.0157 11.5953 29.9981 11.6091C29.9817 11.6218 29.9653 11.6345 29.9484 11.6476C29.9268 11.6645 29.9268 11.6645 29.9047 11.6818C29.8619 11.709 29.8619 11.709 29.811 11.7202C29.7897 11.7262 29.7897 11.7262 29.7679 11.7324C29.7602 11.7556 29.7525 11.7788 29.7445 11.8026C29.6976 11.8402 29.6976 11.8402 29.6403 11.8772C29.6214 11.8896 29.6026 11.902 29.5832 11.9148C29.5332 11.9431 29.5332 11.9431 29.4862 11.9431C29.4862 11.9585 29.4862 11.974 29.4862 11.9899C29.4397 12.0053 29.3932 12.0208 29.3454 12.0367C29.3454 12.0521 29.3454 12.0676 29.3454 12.0835C29.3128 12.1098 29.3128 12.1098 29.2671 12.1386C29.2504 12.1493 29.2337 12.1599 29.2165 12.1709C29.1985 12.1821 29.1805 12.1933 29.1619 12.2049C29.1438 12.2164 29.1257 12.2279 29.107 12.2397C29.0535 12.2736 28.9999 12.3073 28.9462 12.3409C28.8958 12.3726 28.8455 12.4043 28.7951 12.436C28.7753 12.4484 28.7555 12.4607 28.735 12.4734C28.6855 12.5042 28.6855 12.5042 28.641 12.5516C28.6019 12.5672 28.5628 12.5828 28.5236 12.5984C28.483 12.6229 28.4429 12.6483 28.4033 12.6744C28.2968 12.7432 28.1887 12.8054 28.0768 12.865C28.0252 12.8928 27.9743 12.9212 27.9236 12.9505C27.9092 12.9588 27.8948 12.9671 27.88 12.9757C27.8391 12.9994 27.7982 13.0232 27.7573 13.047C27.6775 13.0904 27.5979 13.1251 27.5141 13.1601C27.4948 13.1717 27.4754 13.1832 27.4554 13.1952C27.3839 13.2379 27.309 13.2678 27.2324 13.3005C27.2145 13.3116 27.1966 13.3227 27.1781 13.3341C27.1028 13.3778 27.0253 13.4073 26.9442 13.4387C26.8812 13.4639 26.8199 13.4914 26.7584 13.5199C26.5215 13.6285 26.2769 13.7201 26.0328 13.8113C25.963 13.8384 25.963 13.8384 25.892 13.8751C25.8344 13.9037 25.7808 13.9253 25.7196 13.9441C25.656 13.9644 25.5974 13.9858 25.5362 14.0128C25.4373 14.0564 25.3342 14.0851 25.2309 14.1161C25.1364 14.145 25.0428 14.176 24.9492 14.2074C24.5466 14.3419 24.1437 14.4728 23.7328 14.5802C23.6622 14.5987 23.5925 14.6183 23.523 14.6405C23.3522 14.693 23.1945 14.7134 23.0167 14.715C22.9969 14.7152 22.977 14.7154 22.9566 14.7157C22.8399 14.714 22.7538 14.7018 22.6543 14.6345C22.6197 14.5203 22.6264 14.4374 22.6778 14.3303C22.8216 14.1608 23.0188 14.0383 23.2061 13.9221C23.2507 13.8943 23.2946 13.8653 23.3381 13.8359C23.4713 13.7493 23.6038 13.6714 23.7578 13.6281C23.7578 13.6127 23.7578 13.5973 23.7578 13.5813C23.8058 13.5485 23.8058 13.5485 23.8693 13.5126C23.9302 13.4778 23.9876 13.4448 24.0428 13.4013C24.0864 13.3707 24.0864 13.3707 24.1569 13.3707C24.1569 13.3553 24.1569 13.3398 24.1569 13.3239C24.2101 13.286 24.2101 13.286 24.2801 13.2434C24.3757 13.1853 24.3757 13.1853 24.4661 13.1198C24.509 13.0899 24.509 13.0899 24.5795 13.0899C24.5872 13.0667 24.595 13.0435 24.6029 13.0196C24.6516 12.9802 24.6516 12.9802 24.713 12.9392C24.7342 12.9249 24.7554 12.9105 24.7772 12.8958C24.8242 12.8648 24.8713 12.8339 24.9184 12.8032C24.978 12.7656 24.978 12.7656 25.0182 12.7212C25.049 12.692 25.049 12.692 25.1194 12.692C25.1194 12.6765 25.1194 12.6611 25.1194 12.6452C25.1593 12.6129 25.2007 12.5825 25.2427 12.553C25.2656 12.5369 25.2885 12.5208 25.312 12.5041C25.3445 12.4813 25.3445 12.4813 25.3777 12.458C25.395 12.4444 25.4123 12.4309 25.4301 12.4169C25.4716 12.3877 25.4716 12.3877 25.5186 12.3877C25.528 12.3653 25.528 12.3653 25.5376 12.3424C25.5655 12.2941 25.5655 12.2941 25.6359 12.2707C25.6753 12.232 25.7144 12.1929 25.7533 12.1537C25.8039 12.112 25.8563 12.0729 25.9089 12.0338C26.0242 11.9477 26.0242 11.9477 26.129 11.8495C26.1626 11.8213 26.1962 11.7931 26.2302 11.7653C26.2585 11.7419 26.2863 11.7179 26.3138 11.6937C26.3356 11.6745 26.3356 11.6745 26.3579 11.6549C26.3713 11.6429 26.3847 11.631 26.3986 11.6186C26.4342 11.592 26.4342 11.592 26.4811 11.592C26.4869 11.5784 26.4927 11.5647 26.4987 11.5507C26.5324 11.4906 26.5698 11.4554 26.622 11.4106C26.6384 11.3963 26.6549 11.3819 26.6719 11.3671C26.7159 11.3346 26.7159 11.3346 26.7628 11.3346C26.7681 11.3215 26.7733 11.3084 26.7787 11.2949C26.8194 11.2243 26.8705 11.1809 26.9316 11.1269C26.9575 11.1037 26.9833 11.0804 27.0092 11.0572C27.0228 11.0451 27.0363 11.0329 27.0503 11.0204C27.2819 10.8129 27.505 10.5971 27.7254 10.3779C27.737 10.3664 27.7486 10.3549 27.7606 10.343C27.8826 10.2219 28.002 10.0997 28.114 9.96934C28.1573 9.91973 28.2034 9.87366 28.2507 9.82795C28.3136 9.76835 28.3136 9.76835 28.3593 9.6963C28.3748 9.6963 28.3903 9.6963 28.4063 9.6963C28.4126 9.68252 28.419 9.66873 28.4256 9.65452C28.4944 9.52543 28.6088 9.42417 28.7115 9.32184C28.7478 9.28052 28.7834 9.23871 28.8188 9.1966C28.8519 9.1585 28.887 9.1234 28.9228 9.0878C28.9445 9.06316 28.9661 9.03828 28.9873 9.01321C29.0519 8.93749 29.1174 8.86259 29.1832 8.78794C29.2455 8.71665 29.3072 8.64478 29.3688 8.57292C29.0633 8.60583 28.7607 8.64326 28.4593 8.70372C28.3429 8.72695 28.2277 8.74597 28.1099 8.76015C27.9557 8.779 27.8059 8.80992 27.6544 8.84298C27.52 8.87197 27.386 8.89316 27.2495 8.91054C27.1607 8.92417 27.0739 8.94253 26.9862 8.96179C26.5957 9.04617 26.295 8.99324 25.9411 8.80696C25.9411 8.79151 25.9411 8.77607 25.9411 8.76015C25.9212 8.75493 25.9013 8.74971 25.8808 8.74434C25.7847 8.70734 25.7179 8.65654 25.6389 8.59194C25.6174 8.57465 25.6174 8.57465 25.5954 8.55701C25.554 8.52352 25.5128 8.48973 25.4716 8.4559C25.451 8.43937 25.4305 8.42284 25.4093 8.4058C25.2863 8.30382 25.2863 8.30382 25.2732 8.24371C25.269 8.22878 25.2647 8.21385 25.2603 8.19846C25.2292 8.18245 25.1979 8.16692 25.1664 8.15165C25.1151 8.0957 25.1151 8.0957 25.0622 8.02878C25.0437 8.00555 25.0252 7.98232 25.0062 7.95839C24.9809 7.92662 24.9809 7.92662 24.9551 7.89421C24.9337 7.86974 24.9122 7.84533 24.8905 7.82107C24.8352 7.75061 24.7933 7.67981 24.7513 7.60093C24.7301 7.56141 24.7079 7.52241 24.6849 7.48391C24.5548 7.26237 24.4436 6.99791 24.4973 6.73719C24.5012 6.72512 24.505 6.71305 24.509 6.70062C24.5245 6.70062 24.54 6.70062 24.556 6.70062C24.5637 6.67745 24.5715 6.65428 24.5795 6.63041C24.6809 6.57982 24.8126 6.59108 24.9243 6.5836C24.9504 6.58167 24.9766 6.57974 25.0036 6.57775C25.1869 6.56518 25.37 6.55813 25.5537 6.55314C25.9618 6.54187 26.3676 6.51554 26.7746 6.48373C26.9326 6.47146 27.0906 6.45967 27.2485 6.44784C27.2656 6.44656 27.2826 6.44528 27.3001 6.44396C27.5684 6.42383 27.8367 6.40668 28.1055 6.39344C28.394 6.37914 28.6808 6.35616 28.9683 6.32856C29.1809 6.30829 29.3934 6.29312 29.6065 6.28081C29.9029 6.26348 30.197 6.23462 30.4921 6.20291C30.884 6.161 31.276 6.13508 31.6696 6.11552C31.6674 5.99281 31.6649 5.87011 31.6622 5.74741C31.6613 5.70586 31.6605 5.66431 31.6597 5.62276C31.6547 5.34737 31.6371 5.07779 31.5992 4.80491C31.5668 4.80986 31.5668 4.80986 31.5337 4.81491C30.8033 4.92589 30.8033 4.92589 30.4937 4.95145C30.328 4.96556 30.1636 4.98705 29.9988 5.00919C29.7383 5.04411 29.4787 5.07291 29.2164 5.09059C29.0554 5.10176 28.895 5.11616 28.7345 5.13275C28.7138 5.13488 28.6931 5.13701 28.6717 5.1392C28.5686 5.14986 28.4655 5.16074 28.3624 5.17187C27.7674 5.23481 27.7674 5.23481 27.6183 5.16182C27.59 5.13575 27.59 5.13575 27.5611 5.10916C27.5403 5.09419 27.5194 5.07923 27.498 5.06381C27.3906 4.96831 27.3639 4.8762 27.341 4.73899C27.3498 4.68789 27.3498 4.68789 27.3963 4.63953C27.4818 4.58493 27.5673 4.55007 27.6623 4.51529C27.6809 4.50829 27.6994 4.5013 27.7186 4.49409C27.7755 4.47266 27.8326 4.45152 27.8898 4.43045C27.9396 4.41194 27.9894 4.3934 28.0393 4.37485C28.0707 4.36317 28.1021 4.3515 28.1335 4.33986C28.2482 4.29711 28.361 4.25064 28.4738 4.20299C28.5602 4.16768 28.6474 4.13512 28.7349 4.1028C28.8689 4.0533 29.0011 4.00107 29.1327 3.94555C29.2149 3.9112 29.2977 3.87819 29.3806 3.84535C29.4876 3.80292 29.5943 3.75971 29.7004 3.71517C29.7961 3.67508 29.8924 3.63749 29.9895 3.60108C30.1168 3.55271 30.2396 3.49768 30.3629 3.4399C30.4662 3.3921 30.5712 3.34813 30.6762 3.30414C30.6955 3.29607 30.7148 3.288 30.7346 3.27968C30.8326 3.23885 30.9308 3.19907 31.0299 3.16079C31.1086 3.12994 31.1787 3.09278 31.2511 3.04953C31.3196 3.01228 31.3918 2.98561 31.4644 2.95756C31.7346 2.8528 31.9981 2.73576 32.2565 2.60495C32.3882 2.53835 32.5195 2.47486 32.6557 2.41772C32.8322 2.34113 32.8322 2.34113 33.0019 2.25097C33.0801 2.206 33.1596 2.1721 33.2426 2.13688C33.262 2.12529 33.2813 2.11371 33.3013 2.10177C33.36 2.06666 33.36 2.06666 33.4351 2.03503C33.5251 1.99712 33.6103 1.95237 33.696 1.90576C33.796 1.85189 33.8961 1.79888 33.9983 1.74925C34.1105 1.69404 34.2178 1.6314 34.3255 1.56787C34.3832 1.53411 34.4413 1.50168 34.5001 1.46987C34.6036 1.41308 34.7028 1.35004 34.802 1.28611C34.8415 1.26094 34.8814 1.23637 34.9217 1.21252C34.9817 1.17627 35.0386 1.13732 35.0958 1.09687C35.1617 1.05044 35.2277 1.00455 35.2954 0.960834C35.355 0.923243 35.355 0.923243 35.3952 0.878921C35.426 0.849666 35.426 0.849666 35.4964 0.849666C35.5022 0.835185 35.508 0.820704 35.514 0.805784C35.5489 0.746606 35.5771 0.739238 35.6373 0.709244C35.645 0.693797 35.6528 0.678351 35.6608 0.662436C35.6842 0.615628 35.6842 0.615628 35.7327 0.592225C35.7477 0.584501 35.7627 0.576778 35.7781 0.568821C35.7865 0.537755 35.7942 0.506519 35.8016 0.475206C35.8473 0.379095 35.8895 0.303663 35.985 0.252869C36.4299 0.183303 36.9106 0.381742 37.2807 0.615628ZM35.8187 14.3085C35.7614 14.3117 35.7046 14.317 35.6476 14.3229C35.6149 14.3261 35.6149 14.3261 35.5816 14.3293C35.3647 14.351 35.1486 14.379 34.9324 14.4067C34.7092 14.4353 34.4862 14.4596 34.2618 14.4773C34.1486 14.4863 34.036 14.497 33.9233 14.5108C33.5982 14.5506 33.2746 14.5758 32.9477 14.5921C32.9281 14.5931 32.9085 14.5941 32.8883 14.5951C32.1118 14.634 32.1118 14.634 31.8428 14.576C31.8119 14.5697 31.781 14.5634 31.7501 14.5572C31.7235 14.5518 31.697 14.5464 31.6696 14.5409C31.6599 14.8364 31.6862 15.1248 31.7185 15.4184C31.7269 15.4954 31.7351 15.5724 31.7432 15.6495C31.7485 15.6987 31.7537 15.7478 31.759 15.797C31.7615 15.8199 31.7639 15.8428 31.7664 15.8665C31.7688 15.8877 31.7711 15.909 31.7736 15.9309C31.7756 15.9495 31.7776 15.9682 31.7797 15.9873C31.7867 16.037 31.7973 16.084 31.8105 16.1324C32.2773 16.1149 32.7418 16.0878 33.204 16.0178C33.359 15.9945 33.5139 15.9787 33.67 15.9649C33.8039 15.9522 33.9351 15.9318 34.0675 15.9085C34.2892 15.8696 34.5051 15.8423 34.7305 15.8413C34.7518 15.841 34.7731 15.8408 34.7951 15.8406C35.0029 15.8432 35.2155 15.8801 35.379 16.0153C35.4283 16.07 35.4676 16.1234 35.5049 16.1867C35.5595 16.2757 35.6229 16.3575 35.6857 16.4409C35.7316 16.5074 35.7668 16.5744 35.8016 16.6472C35.8132 16.668 35.8249 16.6887 35.8368 16.7101C35.9308 16.917 35.9768 17.1194 35.9175 17.342C35.8758 17.4522 35.8148 17.5117 35.7077 17.56C35.4112 17.667 35.1217 17.68 34.8093 17.6836C34.7799 17.684 34.7504 17.6844 34.72 17.6849C34.6572 17.6857 34.5944 17.6866 34.5315 17.6874C34.433 17.6887 34.3344 17.6902 34.2359 17.6917C34.2195 17.6919 34.2031 17.6922 34.1862 17.6924C34.1532 17.693 34.1203 17.6935 34.0873 17.694C34.022 17.695 33.9567 17.696 33.8914 17.697C33.8448 17.6977 33.7981 17.6984 33.7515 17.6991C33.6974 17.6999 33.6434 17.7007 33.5894 17.7015C33.048 17.7097 32.5134 17.7362 31.9748 17.794C31.9878 18.029 32.0066 18.2622 32.0335 18.4961C32.0575 18.7098 32.0777 18.9223 32.0872 19.1371C32.0854 19.1965 32.0854 19.1965 32.1157 19.2217C32.3382 19.2166 32.5618 19.1838 32.7829 19.1592C33.0719 19.127 33.3608 19.097 33.6507 19.0747C33.8262 19.0608 34.0009 19.0422 34.1758 19.0227C34.3962 18.9983 34.6163 18.9788 34.8376 18.9642C35.0743 18.9484 35.3103 18.929 35.5463 18.9057C35.5758 18.9029 35.6054 18.9001 35.6358 18.8973C35.663 18.8945 35.6902 18.8917 35.7182 18.8889C35.7543 18.8853 35.7543 18.8853 35.7912 18.8816C35.8526 18.8754 35.8526 18.8754 35.8955 18.8238C35.9038 18.7594 35.9093 18.6969 35.913 18.6322C35.9144 18.6126 35.9157 18.593 35.917 18.5728C35.9198 18.5305 35.9225 18.4881 35.9251 18.4457C35.9321 18.333 35.9398 18.2202 35.9474 18.1075C35.949 18.0847 35.9505 18.062 35.9521 18.0385C35.9646 17.8532 35.9807 17.6683 35.9981 17.4834C36.0284 17.1623 36.0491 16.8415 36.0652 16.5195C36.0787 16.2515 36.0963 15.9841 36.1153 15.7165C36.1287 15.5275 36.1413 15.3384 36.1538 15.1494C36.1555 15.123 36.1555 15.123 36.1574 15.0961C36.1643 14.991 36.1704 14.8859 36.1758 14.7808C36.1774 14.7562 36.1791 14.7316 36.1807 14.7062C36.1863 14.5813 36.182 14.4744 36.1175 14.3643C36.0613 14.3082 36.0068 14.3063 35.9296 14.3045C35.8926 14.306 35.8556 14.3074 35.8187 14.3085Z" fill="#F5F5F5"/>
<path d="M15.0994 0.578648C15.1133 0.590896 15.1273 0.603145 15.1416 0.615765C15.1416 0.631211 15.1416 0.646658 15.1416 0.662572C15.1591 0.667882 15.1765 0.673192 15.1945 0.678663C15.2726 0.715825 15.3016 0.757594 15.3529 0.826399C15.3723 0.845707 15.3917 0.865015 15.4116 0.884909C15.4679 0.94099 15.5156 0.99771 15.5642 1.06044C15.5769 1.07588 15.5895 1.09133 15.6025 1.10724C15.6857 1.21049 15.756 1.31334 15.8181 1.43042C15.8458 1.48137 15.876 1.52961 15.9076 1.57825C15.9595 1.65986 15.9977 1.74289 16.0338 1.83276C16.0453 1.85762 16.0567 1.88248 16.0685 1.90809C16.1071 1.99771 16.1269 2.08662 16.1438 2.18236C16.1469 2.19791 16.1499 2.21346 16.1531 2.22948C16.1938 2.4509 16.1798 2.65646 16.0807 2.86253C15.8582 3.08079 15.4817 3.02857 15.194 3.03197C14.6077 3.03899 14.0266 3.07788 13.4426 3.12692C13.2538 3.14264 13.0651 3.15456 12.8761 3.16532C12.5335 3.18561 12.1932 3.22681 11.8526 3.26798C11.831 3.27055 11.8095 3.27312 11.7872 3.27576C11.7468 3.28058 11.7065 3.28551 11.6661 3.29056C11.5403 3.30554 11.4181 3.30927 11.2914 3.3072C11.2922 3.33232 11.2922 3.33232 11.293 3.35794C11.2953 3.48478 11.291 3.60358 11.2679 3.72847C11.2438 3.86563 11.2416 3.9979 11.2429 4.13657C11.2431 4.16895 11.2431 4.16895 11.2433 4.20199C11.2435 4.25478 11.2439 4.30758 11.2444 4.36037C11.272 4.35707 11.2997 4.35377 11.3281 4.35037C12.2509 4.24046 12.2509 4.24046 12.6119 4.21384C12.8505 4.1955 13.0878 4.16578 13.3253 4.13717C13.5099 4.11498 13.6945 4.09439 13.8797 4.07807C14.0648 4.06169 14.2482 4.0379 14.4322 4.01173C14.5765 3.99153 14.7206 3.97635 14.8658 3.96397C15.0806 3.94542 15.2922 3.91377 15.505 3.87969C15.6557 3.85582 15.8056 3.83604 15.9575 3.82209C16.1649 3.80276 16.3679 3.76598 16.5724 3.72701C16.669 3.70869 16.7653 3.69436 16.8628 3.68166C16.9715 3.66574 17.0598 3.63651 17.1581 3.58823C17.2247 3.55653 17.293 3.53442 17.3633 3.51245C17.3984 3.5011 17.4332 3.48908 17.4677 3.47615C17.5975 3.42839 17.7124 3.41224 17.8503 3.41398C17.8698 3.41413 17.8893 3.41427 17.9094 3.41442C18.066 3.41838 18.1931 3.44958 18.3346 3.51784C18.3606 3.52838 18.3606 3.52838 18.3871 3.53914C18.7923 3.70485 18.7923 3.70485 18.8511 3.82209C18.8897 3.84629 18.9289 3.86954 18.9684 3.8923C19.0164 3.92203 19.0635 3.95301 19.1093 3.98591C19.1093 4.00136 19.1093 4.01681 19.1093 4.03272C19.1226 4.03851 19.1358 4.0443 19.1495 4.05026C19.349 4.15894 19.5146 4.36201 19.6742 4.52127C19.7049 4.55188 19.7049 4.55188 19.7362 4.58311C20.1188 4.9682 20.1188 4.9682 20.1188 5.06249C20.1421 5.07021 20.1653 5.07793 20.1893 5.08589C20.2143 5.12393 20.2375 5.16316 20.2597 5.20291C20.3067 5.27314 20.3543 5.34294 20.402 5.41272C20.4461 5.48156 20.4819 5.55092 20.518 5.62418C20.5333 5.64982 20.5487 5.67547 20.5645 5.70189C20.6932 5.92485 20.7654 6.19266 20.7674 6.44916C20.7678 6.47296 20.7678 6.47296 20.7682 6.49724C20.7641 6.63981 20.7109 6.73509 20.6176 6.84127C20.3221 7.0952 19.9523 7.21614 19.5746 7.28951C19.4614 7.31444 19.351 7.34629 19.2399 7.37946C19.2202 7.3853 19.2004 7.39114 19.1801 7.39715C19.0943 7.42314 19.0107 7.45028 18.9286 7.48624C18.8532 7.51898 18.7788 7.54358 18.6999 7.56669C18.5101 7.62382 18.3299 7.69482 18.1471 7.77129C18.0269 7.82128 17.9058 7.86895 17.7847 7.91684C17.7253 7.9404 17.666 7.96414 17.6068 7.98796C17.5859 7.99632 17.5649 8.00468 17.5434 8.01329C17.2207 8.14449 16.8879 8.28629 16.5972 8.47944C16.5662 8.47944 16.5353 8.47944 16.5033 8.47944C16.5033 8.49489 16.5033 8.51034 16.5033 8.52625C16.4858 8.53557 16.4682 8.54489 16.4501 8.5545C16.427 8.5669 16.4039 8.5793 16.3801 8.59207C16.3572 8.60429 16.3343 8.61651 16.3107 8.6291C16.2536 8.6618 16.2034 8.69719 16.1512 8.73688C16.0344 8.78953 15.9019 8.80822 15.7755 8.78369C15.7223 8.74758 15.7223 8.74758 15.6816 8.69008C15.6706 8.62589 15.666 8.57429 15.667 8.51016C15.6671 8.49272 15.6672 8.47527 15.6674 8.4573C15.6749 8.25505 15.7441 8.07879 15.8225 7.89435C15.8334 7.86822 15.8443 7.84209 15.8555 7.81518C15.8749 7.76903 15.8945 7.72294 15.9143 7.67695C15.9467 7.59657 15.9707 7.51495 15.9943 7.43167C16.0171 7.35712 16.05 7.28722 16.0807 7.21564C16.0929 7.17676 16.1046 7.13774 16.116 7.09862C16.1442 7.00117 16.1815 6.91106 16.2216 6.81777C16.2323 6.78377 16.2425 6.74962 16.2524 6.71538C16.2858 6.60085 16.3242 6.48849 16.3639 6.37603C16.37 6.35876 16.376 6.34149 16.3823 6.3237C16.3881 6.30724 16.394 6.29078 16.4 6.27382C16.4052 6.25913 16.4104 6.24444 16.4158 6.22931C16.4329 6.18587 16.4329 6.18587 16.4568 6.14051C16.4821 6.08757 16.4944 6.03845 16.5063 5.98109C16.5102 5.96238 16.5141 5.94368 16.5182 5.92441C16.521 5.91029 16.5239 5.89617 16.5268 5.88162C16.0272 5.88533 15.5357 5.94437 15.04 6.00178C14.8838 6.01972 14.7276 6.03485 14.5709 6.04691C14.3446 6.06453 14.12 6.09307 13.895 6.122C13.6775 6.14989 13.4602 6.17356 13.2415 6.19086C13.0331 6.2078 12.8256 6.23112 12.6178 6.25462C12.3402 6.28596 12.0625 6.31577 11.7844 6.34238C11.7553 6.34517 11.7263 6.34796 11.6963 6.35083C11.5674 6.36303 11.4385 6.37459 11.3095 6.38528C11.2841 6.38738 11.2588 6.38949 11.2326 6.39165C11.2036 6.39405 11.2036 6.39405 11.174 6.3965C11.174 6.42122 11.1741 6.44593 11.1742 6.47139C11.1757 7.07489 11.1769 7.67839 11.1776 8.28189C11.178 8.57375 11.1785 8.8656 11.1793 9.15746C11.18 9.41208 11.1804 9.66669 11.1806 9.92131C11.1807 10.0559 11.1809 10.1905 11.1814 10.3251C11.1819 10.4523 11.182 10.5794 11.1819 10.7066C11.182 10.7528 11.1821 10.799 11.1824 10.8453C11.1865 11.5714 11.1071 12.3457 10.634 12.9262C10.634 12.9339 10.634 12.9416 10.634 12.9496C10.6593 12.9463 10.6846 12.943 10.7106 12.9396C10.8279 12.9243 10.9452 12.9091 11.0625 12.894C11.0837 12.8912 11.1049 12.8885 11.1267 12.8857C11.1904 12.8775 11.2541 12.8693 11.3179 12.8612C11.3472 12.8574 11.3472 12.8574 11.3771 12.8535C11.5141 12.8361 11.6512 12.8226 11.7888 12.8106C12.4164 12.7531 13.0811 12.6621 13.647 12.3787C13.9279 12.2402 14.2262 12.1473 14.5337 12.2479C14.793 12.3434 15.0406 12.4628 15.2825 12.5956C15.3164 12.6142 15.3164 12.6142 15.351 12.6331C15.669 12.8083 15.9611 13.0094 16.2429 13.2383C16.2944 13.2802 16.2944 13.2802 16.3625 13.324C16.3625 13.3395 16.3625 13.3549 16.3625 13.3708C16.377 13.3766 16.3915 13.3824 16.4065 13.3884C16.4659 13.4232 16.4732 13.4513 16.5033 13.5113C16.5173 13.5177 16.5313 13.5241 16.5457 13.5306C16.6124 13.5661 16.6471 13.6104 16.6941 13.6692C16.7181 13.6987 16.7181 13.6987 16.7427 13.7288C16.8495 13.8883 16.8545 14.0625 16.8219 14.2471C16.7815 14.3981 16.7097 14.5343 16.6376 14.6722C16.5616 14.8217 16.5148 14.9496 16.4908 15.1147C16.4879 15.1335 16.485 15.1522 16.482 15.1716C16.4727 15.232 16.4638 15.2924 16.4549 15.3528C16.4486 15.3945 16.4423 15.4362 16.436 15.4779C16.4029 15.6993 16.3728 15.9205 16.3534 16.1436C16.3423 16.2705 16.3251 16.3957 16.3052 16.5216C16.2725 16.729 16.2479 16.9369 16.2246 17.1456C16.2065 17.3057 16.1855 17.4651 16.1614 17.6245C16.1343 17.8057 16.1155 17.9865 16.1004 18.1691C16.0854 18.3439 16.0633 18.5175 16.0401 18.6915C16.037 18.715 16.037 18.715 16.0338 18.7391C16.0317 18.7548 16.0296 18.7706 16.0274 18.7868C15.9954 19.0306 15.9759 19.2732 15.9634 19.5187C15.9492 19.7926 15.9159 20.0538 15.856 20.3214C15.8429 20.3831 15.8341 20.4451 15.8254 20.5075C15.7492 20.9728 15.5864 21.4114 15.3529 21.8196C15.3374 21.8196 15.322 21.8196 15.306 21.8196C15.2979 21.8446 15.2979 21.8446 15.2896 21.8701C15.253 21.9499 15.2062 22.0014 15.146 22.0654C15.126 22.0868 15.106 22.1083 15.0854 22.1304C15.0267 22.1915 14.967 22.2514 14.9069 22.3111C14.8912 22.3273 14.8755 22.3435 14.8593 22.3602C14.7711 22.4506 14.6875 22.527 14.5782 22.5919C14.5482 22.6111 14.5482 22.6111 14.5176 22.6306C14.2211 22.8138 13.9168 22.8985 13.5687 22.8494C13.4457 22.8122 13.3462 22.7562 13.24 22.6856C13.24 22.6701 13.24 22.6547 13.24 22.6387C13.2269 22.6373 13.2138 22.6358 13.2004 22.6344C13.1233 22.6073 13.0838 22.5574 13.0287 22.4983C13.0076 22.4795 13.0076 22.4795 12.9861 22.4603C12.9583 22.4281 12.9583 22.4281 12.9583 22.3579C12.9386 22.3513 12.9386 22.3513 12.9185 22.3446C12.8399 22.2959 12.7989 22.2248 12.7499 22.1487C12.7403 22.1344 12.7307 22.12 12.7208 22.1052C12.6356 21.9753 12.5619 21.8395 12.4887 21.7026C12.4659 21.7051 12.443 21.7075 12.4195 21.7101C12.3105 21.7218 12.2015 21.7334 12.0925 21.745C12.0724 21.7471 12.0523 21.7493 12.0316 21.7515C11.7513 21.7811 11.471 21.8078 11.1901 21.8313C10.9077 21.855 10.6268 21.8856 10.3456 21.9209C10.122 21.9489 9.89873 21.9723 9.67412 21.99C9.49704 22.0045 9.32164 22.0272 9.14565 22.0512C8.99244 22.0718 8.83948 22.0869 8.68538 22.099C8.4528 22.1174 8.22204 22.1462 7.99086 22.177C7.79899 22.2025 7.6076 22.2253 7.41467 22.2409C7.18479 22.2596 6.95738 22.2911 6.72911 22.3237C6.54269 22.35 6.35683 22.3706 6.16924 22.3861C6.03007 22.3984 5.8932 22.4186 5.75537 22.4413C5.00809 22.5646 5.00809 22.5646 4.74275 22.3932C4.71874 22.3757 4.71874 22.3757 4.69424 22.3579C4.67099 22.3425 4.64775 22.327 4.6238 22.3111C4.6238 22.2956 4.6238 22.2802 4.6238 22.2643C4.59838 22.2562 4.59838 22.2562 4.57245 22.2479C4.49376 22.2116 4.44893 22.1671 4.38903 22.1048C4.36966 22.0849 4.35029 22.065 4.33034 22.0444C4.31097 22.0243 4.2916 22.0042 4.27164 21.9834C4.25137 21.9634 4.23109 21.9433 4.2102 21.9226C4.16472 21.8769 4.12225 21.8309 4.08089 21.7816C4.03695 21.7293 3.99147 21.6805 3.94296 21.6324C3.86186 21.5435 3.79159 21.4561 3.73167 21.3515C3.71018 21.3208 3.68865 21.2901 3.6671 21.2594C3.47592 20.9723 3.34081 20.6736 3.35603 20.3218C3.38168 20.208 3.42479 20.1117 3.52037 20.0409C3.68983 19.9696 3.86787 19.9673 4.04888 19.9658C4.09454 19.9652 4.14019 19.9645 4.18584 19.9639C4.22211 19.9635 4.22211 19.9635 4.25912 19.963C5.23131 19.9496 6.20418 19.9148 7.16932 19.7933C7.29439 19.7786 7.41968 19.7692 7.54526 19.7601C7.78156 19.7425 8.015 19.7109 8.24948 19.6772C8.41466 19.6538 8.57929 19.6337 8.74554 19.6197C8.96767 19.6008 9.18735 19.5693 9.40785 19.5368C9.56302 19.5141 9.7178 19.494 9.87392 19.4792C10.0769 19.46 10.2774 19.4283 10.4787 19.3964C10.6281 19.373 10.7769 19.353 10.9275 19.3388C11.1319 19.3196 11.3338 19.2881 11.5366 19.256C11.701 19.2303 11.8651 19.2086 12.0308 19.1919C12.1851 19.176 12.3381 19.1526 12.4911 19.1273C12.6094 19.1085 12.7211 19.1018 12.8409 19.1048C12.8422 19.0766 12.8422 19.0766 12.8435 19.0479C12.854 18.8675 12.8753 18.6933 12.9089 18.5158C12.9369 18.3619 12.948 18.2076 12.9583 18.0516C12.9283 18.0555 12.8983 18.0594 12.8674 18.0634C12.137 18.1579 11.4085 18.248 10.6738 18.3017C10.3952 18.3222 10.1188 18.3494 9.84191 18.3867C9.72029 18.403 9.59851 18.4141 9.47627 18.4246C9.25664 18.4438 9.03957 18.4755 8.8217 18.5089C8.67276 18.5316 8.52423 18.5517 8.37431 18.5665C8.21293 18.5826 8.05413 18.6083 7.89449 18.6367C6.93354 18.8074 6.93354 18.8074 6.46577 18.5159C6.44673 18.5017 6.42769 18.4875 6.40808 18.4729C6.40808 18.4574 6.40808 18.442 6.40808 18.4261C6.3892 18.4198 6.37031 18.4135 6.35086 18.407C6.331 18.3979 6.31115 18.3887 6.29069 18.3793C6.28295 18.3561 6.2752 18.3329 6.26722 18.309C6.24933 18.3022 6.23145 18.2954 6.21302 18.2884C6.13408 18.2557 6.10524 18.216 6.05445 18.1481C6.0098 18.0891 5.96732 18.0334 5.91432 17.9816C5.86247 17.9289 5.82633 17.8745 5.7874 17.8117C5.77321 17.7889 5.75901 17.7661 5.74439 17.7426C5.73098 17.721 5.71757 17.6994 5.70376 17.6771C5.69302 17.6608 5.68227 17.6446 5.6712 17.6278C5.47813 17.3339 5.39384 17.0419 5.42671 16.6911C5.45654 16.6217 5.49426 16.609 5.5629 16.5772C5.64393 16.5635 5.72501 16.5597 5.80702 16.5558C5.83111 16.5544 5.8552 16.553 5.88002 16.5515C5.95722 16.5471 6.03445 16.5431 6.11168 16.5391C6.162 16.5363 6.21232 16.5334 6.26263 16.5305C6.45914 16.5194 6.65564 16.5088 6.85234 16.5018C7.16808 16.4903 7.47947 16.463 7.79324 16.4265C7.88323 16.4162 7.97323 16.406 8.06323 16.3959C8.09644 16.3921 8.09644 16.3921 8.13033 16.3883C8.29159 16.3703 8.45298 16.3557 8.61467 16.3423C8.82084 16.3251 9.02492 16.3022 9.22976 16.2729C9.42569 16.2458 9.62114 16.2203 9.81816 16.2027C10.0255 16.184 10.2303 16.1525 10.4359 16.1199C10.58 16.0972 10.7238 16.0765 10.8688 16.0608C11.0211 16.0443 11.1715 16.0207 11.3225 15.9946C11.4711 15.9692 11.6199 15.9505 11.7696 15.9329C11.8458 15.923 11.9204 15.9103 11.9957 15.8955C12.2281 15.8527 12.4031 15.8781 12.6014 16.0135C12.774 16.148 12.9076 16.3024 13.0287 16.4835C13.0519 16.1906 13.055 15.8996 13.0536 15.6059C13.0535 15.5614 13.0534 15.5169 13.0533 15.4723C13.0531 15.3647 13.0527 15.2571 13.0522 15.1495C12.895 15.1082 12.7612 15.0988 12.5996 15.1094C12.5649 15.1114 12.5649 15.1114 12.5296 15.1133C12.4538 15.1178 12.3781 15.1226 12.3024 15.1276C12.2632 15.13 12.2632 15.13 12.2232 15.1325C11.7507 15.1615 11.2801 15.205 10.8094 15.2551C10.787 15.2574 10.7647 15.2598 10.7417 15.2622C10.7196 15.2646 10.6975 15.267 10.6748 15.2694C10.4786 15.2899 10.2821 15.3054 10.0855 15.3205C9.91596 15.3337 9.74764 15.3504 9.57899 15.3719C9.37863 15.3962 9.17872 15.415 8.97738 15.4289C8.72359 15.4466 8.4721 15.4752 8.21979 15.5069C8.01769 15.5323 7.8159 15.5551 7.61276 15.5708C7.37378 15.5894 7.13714 15.6208 6.89972 15.6535C6.70829 15.6797 6.51707 15.7018 6.32466 15.7193C6.22221 15.7289 6.12198 15.7423 6.02071 15.761C5.71203 15.8145 5.45865 15.7759 5.19166 15.6074C4.88014 15.3887 4.57729 15.1211 4.34208 14.8219C4.32112 14.7974 4.3001 14.773 4.27898 14.7487C4.22469 14.6815 4.22469 14.6815 4.20121 14.6112C4.18765 14.5987 4.1741 14.5861 4.16013 14.5732C3.99051 14.3947 3.84905 14.0756 3.84905 13.827C3.85752 13.7092 3.87268 13.6093 3.94296 13.5113C4.06416 13.4183 4.18924 13.3924 4.3388 13.3891C4.36118 13.3886 4.38357 13.388 4.40663 13.3874C4.44313 13.3866 4.44313 13.3866 4.48037 13.3858C4.53414 13.3844 4.58792 13.383 4.64169 13.3815C4.68456 13.3803 4.68456 13.3803 4.72829 13.3792C5.28183 13.3638 5.83268 13.3334 6.3846 13.2889C6.40911 13.2869 6.40911 13.2869 6.43411 13.2849C6.57719 13.2734 6.72026 13.2618 6.86332 13.2501C7.08905 13.2318 7.31471 13.2172 7.54086 13.2055C7.89001 13.1873 8.23766 13.1561 8.58579 13.1243C8.86064 13.0992 9.13542 13.076 9.41079 13.0571C9.54514 13.0478 9.67855 13.0356 9.81229 13.0198C9.64584 12.911 9.64584 12.911 9.47187 12.815C9.41318 12.7857 9.41318 12.7857 9.38264 12.755C9.32925 12.7022 9.26991 12.6604 9.20922 12.6161C9.02162 12.4772 8.85723 12.334 8.70886 12.1538C8.69016 12.1322 8.67145 12.1106 8.65218 12.0883C8.30833 11.6792 8.22647 11.2043 8.27051 10.6813C8.27909 10.598 8.28885 10.5147 8.29891 10.4315C8.30782 10.3575 8.31624 10.2833 8.3247 10.2092C8.33118 10.1524 8.33771 10.0956 8.34425 10.0388C8.3484 10.0027 8.35255 9.96659 8.3567 9.93048C8.35856 9.91429 8.36042 9.8981 8.36234 9.88142C8.42114 9.36692 8.44299 8.85618 8.45061 8.33902C8.4511 8.30634 8.4516 8.27366 8.45209 8.24098C8.46022 7.70418 8.46742 7.16736 8.47409 6.63054C8.44985 6.63356 8.44985 6.63356 8.42512 6.63664C7.85546 6.7072 7.85546 6.7072 7.57755 6.72269C7.27151 6.742 6.96736 6.77364 6.66274 6.80821C6.4789 6.82872 6.29616 6.84432 6.11131 6.85196C5.8145 6.86445 5.52024 6.89946 5.2252 6.93289C4.93728 6.9653 4.65554 6.99089 4.36555 6.9816C4.36218 7.00067 4.3588 7.01974 4.35532 7.03939C4.32153 7.23026 4.32153 7.23026 4.29512 7.30925C4.31615 7.2989 4.33719 7.28856 4.35886 7.27789C4.86995 7.06049 5.51728 7.07161 6.06473 7.06936C6.0836 7.06924 6.10248 7.06911 6.12193 7.06898C6.44221 7.06737 6.77797 7.0684 7.08159 7.18199C7.09799 7.18799 7.11439 7.19398 7.13129 7.20016C7.40533 7.30648 7.66936 7.48955 7.80636 7.75447C7.93548 8.04983 7.93116 8.29144 7.8402 8.59646C7.8308 8.62837 7.8308 8.62837 7.82121 8.66091C7.71457 8.98552 7.50346 9.23736 7.27674 9.48581C7.25972 9.50487 7.25972 9.50487 7.24235 9.52431C7.16307 9.59406 7.03813 9.57412 6.93742 9.57028C6.66319 9.54457 6.41055 9.36563 6.19679 9.20496C6.15931 9.17933 6.12165 9.15397 6.0838 9.1289C6.06673 9.11755 6.04966 9.10621 6.03208 9.09452C5.99337 9.06961 5.95359 9.04637 5.91359 9.02358C5.89858 9.01393 5.88357 9.00427 5.8681 8.99433C5.8681 8.97888 5.8681 8.96343 5.8681 8.94752C5.85212 8.94221 5.83614 8.9369 5.81968 8.93143C5.73431 8.8934 5.65614 8.84623 5.58637 8.78369C5.58637 8.76825 5.58637 8.7528 5.58637 8.73688C5.5733 8.73495 5.56023 8.73302 5.54676 8.73103C5.47547 8.70799 5.43352 8.66696 5.37508 8.61987C5.34745 8.60008 5.31965 8.58053 5.29172 8.56117C5.27726 8.55113 5.26281 8.54108 5.24792 8.53073C5.21785 8.50992 5.1877 8.4892 5.1575 8.46856C5.11964 8.44212 5.0829 8.4141 5.0464 8.38583C5.0464 8.37038 5.0464 8.35493 5.0464 8.33902C5.02978 8.3335 5.01317 8.32798 4.99605 8.32229C4.91719 8.28691 4.8613 8.2412 4.79548 8.18543C4.71447 8.11454 4.71447 8.11454 4.6238 8.05817C4.6238 8.04273 4.6238 8.02728 4.6238 8.01137C4.60565 8.0034 4.60565 8.0034 4.58712 7.99528C4.50887 7.95327 4.43253 7.90606 4.36555 7.84754C4.36555 7.83209 4.36555 7.81665 4.36555 7.80073C4.33723 7.79204 4.33723 7.79204 4.30833 7.78318C4.24817 7.75392 4.24817 7.75392 4.22909 7.70419C4.22764 7.68971 4.22619 7.67523 4.22469 7.66031C4.20145 7.66031 4.1782 7.66031 4.15426 7.66031C4.14545 7.68408 4.13664 7.70786 4.12757 7.73235C4.05453 7.92859 3.97945 8.12348 3.89601 8.31562C3.88948 8.33085 3.88295 8.34608 3.87623 8.36178C3.81448 8.50355 3.74422 8.63992 3.6715 8.77638C3.64896 8.81888 3.62643 8.86139 3.60392 8.90391C3.5934 8.92374 3.58289 8.94356 3.57205 8.96399C3.54934 9.00726 3.52732 9.05088 3.50551 9.09462C3.44588 9.21266 3.37658 9.32531 3.30907 9.439C3.2963 9.46054 3.28353 9.48208 3.27037 9.50427C3.17528 9.66355 3.07538 9.81492 2.96012 9.96046C2.92113 10.0099 2.88265 10.0597 2.84439 10.1097C2.82125 10.1397 2.79811 10.1696 2.77496 10.1996C2.76389 10.2142 2.75281 10.2288 2.74139 10.2439C2.65967 10.3491 2.65967 10.3491 2.58128 10.3752C2.57401 10.3901 2.56675 10.4051 2.55927 10.4205C2.52882 10.4794 2.50093 10.4914 2.44041 10.5156C2.44041 10.531 2.44041 10.5465 2.44041 10.5624C2.39547 10.5854 2.35046 10.6083 2.30542 10.6311C2.28036 10.6439 2.2553 10.6567 2.22948 10.6698C2.0681 10.745 1.90119 10.7522 1.72922 10.705C1.56655 10.6457 1.42969 10.5696 1.29002 10.4688C1.23417 10.4326 1.17817 10.3968 1.12211 10.361C1.07873 10.3283 1.07873 10.3283 1.03177 10.2581C1.00853 10.2504 0.985288 10.2427 0.961341 10.2347C0.929064 10.1965 0.8978 10.1574 0.867432 10.1177C0.844083 10.0942 0.820594 10.0708 0.797 10.0475C0.771741 10.02 0.746796 9.99219 0.722166 9.96412C0.709728 9.95009 0.697289 9.93606 0.684474 9.92161C0.656136 9.88367 0.656136 9.88367 0.656136 9.83686C0.632894 9.82914 0.609651 9.82142 0.585704 9.81346C0.541042 9.76062 0.541042 9.76062 0.493262 9.69351C0.477555 9.67173 0.461848 9.64995 0.445666 9.62751C0.394558 9.55104 0.348917 9.47232 0.303976 9.39219C0.288754 9.36619 0.273531 9.34018 0.257847 9.31339C0.168958 9.15776 0.0971099 9.0039 0.0457257 8.83196C0.0408551 8.81593 0.0359845 8.7999 0.0309664 8.78338C-0.0332906 8.55251 0.00886866 8.34595 0.0985496 8.12692C0.273435 7.83428 0.273435 7.83428 0.374408 7.80073C0.381187 7.78335 0.387966 7.76598 0.394951 7.74807C0.436044 7.64794 0.509418 7.58901 0.594508 7.52427C0.663732 7.46677 0.71946 7.40396 0.777741 7.33567C0.805184 7.30368 0.833151 7.27212 0.861746 7.24114C0.961566 7.13249 1.03895 7.01759 1.1144 6.89091C1.12587 6.8745 1.13734 6.85809 1.14916 6.84118C1.16465 6.84118 1.18015 6.84118 1.19611 6.84118C1.2041 6.81294 1.2041 6.81294 1.21226 6.78413C1.26012 6.65463 1.32748 6.53783 1.40594 6.4243C1.51167 6.26141 1.59349 6.08376 1.66291 5.90274C1.68309 5.85047 1.70403 5.79882 1.72564 5.74714C1.88018 5.37216 2.0055 4.98129 2.05111 4.57759C2.06832 4.48088 2.09807 4.39233 2.13227 4.3004C2.13803 4.28477 2.14378 4.26914 2.1497 4.25304C2.1926 4.14365 2.24057 4.04484 2.34403 3.98253C2.55685 3.90864 2.73835 3.93905 2.93967 4.03455C3.07918 4.11307 3.20623 4.21035 3.33402 4.30625C3.35194 4.31961 3.36985 4.33297 3.38832 4.34674C3.40505 4.35954 3.42178 4.37233 3.43902 4.38551C3.45413 4.397 3.46923 4.40848 3.48479 4.42032C3.52037 4.45399 3.52037 4.45399 3.54385 4.5242C3.55741 4.5271 3.57096 4.52999 3.58493 4.53298C3.70321 4.56573 3.77529 4.68973 3.84905 4.78164C3.8877 4.82113 3.92682 4.86015 3.96644 4.89866C3.97836 4.91556 3.99029 4.93245 4.00257 4.94986C4.09521 5.01787 4.18192 4.99249 4.29219 4.97911C4.34317 4.97388 4.39416 4.9687 4.44516 4.96357C4.47344 4.96061 4.50172 4.95764 4.53086 4.95459C4.63207 4.94466 4.73332 4.93647 4.83473 4.92883C4.85306 4.92745 4.8714 4.92607 4.89028 4.92465C4.92804 4.92181 4.9658 4.91898 5.00356 4.91616C5.32552 4.89191 5.64662 4.86313 5.96776 4.82968C6.18838 4.80713 6.409 4.79174 6.63032 4.77794C6.87591 4.76178 7.1201 4.73624 7.36478 4.70997C7.71111 4.6728 8.05512 4.64709 8.40365 4.64122C8.40064 4.61841 8.40064 4.61841 8.39756 4.59515C8.38832 4.52518 8.37911 4.45521 8.36991 4.38524C8.36674 4.36133 8.36358 4.33742 8.36032 4.31279C8.33249 4.10099 8.30634 3.89547 8.30974 3.68166C8.2865 3.68939 8.26326 3.69711 8.23931 3.70507C8.18112 3.71198 8.123 3.71821 8.0647 3.72408C7.88711 3.74328 7.71384 3.77488 7.53906 3.81128C7.43034 3.83385 7.32224 3.85369 7.21218 3.86889C7.08044 3.88782 6.9535 3.91835 6.82484 3.95162C6.71941 3.97887 6.61418 4.00229 6.50694 4.0212C6.45173 4.03234 6.45173 4.03234 6.38754 4.05667C6.11839 4.14052 5.85186 4.06299 5.60985 3.9391C5.50217 3.8769 5.4026 3.80497 5.30465 3.72847C5.29149 3.71828 5.27833 3.70808 5.26478 3.69758C5.23015 3.67003 5.19685 3.64084 5.16378 3.61145C5.16378 3.59601 5.16378 3.58056 5.16378 3.56464C5.15071 3.55933 5.13763 3.55402 5.12416 3.54855C5.05441 3.50909 5.00777 3.45862 4.95249 3.40082C4.93469 3.38392 4.9169 3.36703 4.89856 3.34962C4.82414 3.27243 4.76166 3.19036 4.69864 3.10388C4.68685 3.08806 4.67506 3.07223 4.66292 3.05593C4.57685 2.93861 4.57685 2.93861 4.57685 2.88593C4.56135 2.88593 4.54586 2.88593 4.52989 2.88593C4.42972 2.71161 4.34355 2.53541 4.27164 2.34765C4.25875 2.31452 4.25875 2.31452 4.2456 2.28073C4.22085 2.19373 4.21431 2.11122 4.21295 2.02146C4.21198 2.0056 4.21101 1.98975 4.21002 1.97341C4.20826 1.85957 4.2376 1.78858 4.31419 1.70438C4.42597 1.62724 4.56769 1.63847 4.69928 1.6341C4.73253 1.63242 4.76577 1.63067 4.79902 1.62885C4.88667 1.62422 4.97434 1.62051 5.06204 1.61702C5.14928 1.61341 5.23647 1.60906 5.32368 1.60471C5.35794 1.60301 5.3922 1.60131 5.42646 1.59962C5.44329 1.59878 5.46012 1.59795 5.47746 1.59709C5.52831 1.59461 5.57916 1.59225 5.63001 1.58991C5.8441 1.57992 6.05727 1.56495 6.27065 1.54477C6.41115 1.53164 6.55122 1.52322 6.69219 1.51745C6.91688 1.50784 7.13879 1.48353 7.36191 1.45602C7.4726 1.44237 7.58335 1.42922 7.69411 1.41607C7.71546 1.41352 7.73681 1.41097 7.75881 1.40835C7.91046 1.39044 8.06214 1.37537 8.21437 1.36322C8.43402 1.34544 8.65116 1.31406 8.8691 1.28185C9.02435 1.25904 9.17918 1.23894 9.33541 1.22426C9.53106 1.20562 9.7241 1.17512 9.91797 1.14318C10.1067 1.11222 10.2957 1.08557 10.4852 1.06059C10.6083 1.04422 10.7299 1.02463 10.8517 1.00092C10.9348 0.987037 11.0183 0.978645 11.1021 0.969747C11.2719 0.951358 11.4372 0.920669 11.6043 0.885703C11.7455 0.856522 11.8867 0.833395 12.0294 0.813234C12.1845 0.791279 12.3352 0.762736 12.4874 0.725287C12.564 0.708309 12.6399 0.697458 12.7176 0.687439C12.8614 0.668461 12.9996 0.637672 13.1402 0.603154C13.2402 0.578947 13.339 0.55965 13.441 0.545553C13.5551 0.529548 13.6656 0.505518 13.777 0.476805C14.2669 0.351669 14.6657 0.270725 15.0994 0.578648Z" fill="#F5F5F5"/>
<path d="M66.0877 10.6556C66.0877 10.6711 66.0877 10.6865 66.0877 10.7024C66.1038 10.7075 66.1198 10.7126 66.1364 10.7178C66.2253 10.7585 66.2913 10.8146 66.365 10.8779C66.379 10.8896 66.3931 10.9013 66.4075 10.9133C66.4428 10.9433 66.4767 10.9749 66.5103 11.0067C66.5103 11.0221 66.5103 11.0376 66.5103 11.0535C66.5272 11.0588 66.5442 11.0641 66.5616 11.0696C66.6414 11.1067 66.6852 11.1532 66.745 11.2173C66.8096 11.2834 66.8751 11.3455 66.9461 11.4045C66.9948 11.4455 67.0323 11.4817 67.0723 11.5318C67.1294 11.6026 67.1947 11.6568 67.2639 11.7155C67.3169 11.7631 67.3592 11.8162 67.4024 11.8726C67.4179 11.8803 67.4334 11.8881 67.4494 11.896C67.4735 11.9346 67.4969 11.9737 67.5198 12.013C67.5445 12.0478 67.5694 12.0824 67.5946 12.1169C67.8065 12.4196 68.0556 12.8173 67.9893 13.2066C67.9719 13.2726 67.9485 13.3324 67.9189 13.3939C67.9051 13.425 67.9051 13.425 67.891 13.4568C67.7698 13.6109 67.5983 13.6493 67.4148 13.6944C67.2881 13.7258 67.1634 13.7639 67.0385 13.802C67.0152 13.8091 66.9919 13.8162 66.9678 13.8235C66.8107 13.8718 66.6543 13.9219 66.4985 13.9746C66.4399 13.9944 66.3813 14.0139 66.3225 14.0331C66.3067 14.0382 66.291 14.0433 66.2749 14.0486C66.2316 14.0628 66.1882 14.0769 66.1449 14.091C66.0612 14.1204 65.9813 14.1544 65.8999 14.1896C65.8697 14.2004 65.8394 14.2107 65.8089 14.2203C65.7008 14.2554 65.5934 14.2925 65.4861 14.33C65.4693 14.3358 65.4524 14.3417 65.4351 14.3477C65.3559 14.3755 65.2779 14.4044 65.2009 14.4378C65.1442 14.4622 65.09 14.4832 65.0312 14.5011C64.789 14.58 64.555 14.6828 64.3221 14.7853C64.1837 14.8462 64.0444 14.9048 63.9043 14.9619C63.8858 14.9705 63.8672 14.979 63.8482 14.9879C63.7707 15.0142 63.7028 15.0175 63.6211 15.019C63.5927 15.0199 63.5644 15.0208 63.5352 15.0218C63.4582 15.0087 63.4582 15.0087 63.4011 14.9598C63.3544 14.8733 63.3523 14.8253 63.3643 14.7279C63.3867 14.6658 63.4098 14.6109 63.4391 14.5523C63.4473 14.5356 63.4554 14.5188 63.4638 14.5015C63.5514 14.3249 63.6499 14.1541 63.7481 13.9832C63.8254 13.8487 63.8992 13.7141 63.9667 13.5744C64.018 13.4711 64.075 13.3708 64.1315 13.2702C64.1677 13.2079 64.1677 13.2079 64.1625 13.1364C64.0153 13.0931 63.8842 13.0831 63.7311 13.0852C63.7067 13.0855 63.6823 13.0857 63.6571 13.0859C63.6034 13.0866 63.5498 13.0873 63.4961 13.0883C63.4395 13.0892 63.3829 13.0898 63.3264 13.0902C62.7581 13.0945 62.1971 13.1489 61.6323 13.2083C61.4612 13.226 61.29 13.2407 61.1185 13.2543C60.9162 13.2704 60.7168 13.2923 60.5162 13.3236C60.3335 13.351 60.1514 13.3766 59.9674 13.3939C59.7688 13.4127 59.5729 13.4442 59.3761 13.4767C59.2369 13.4995 59.0982 13.5196 58.9579 13.5343C58.7847 13.5527 58.6147 13.5835 58.4435 13.6156C58.3028 13.6417 58.1621 13.6643 58.0203 13.6835C57.7735 13.717 57.5281 13.7583 57.2826 13.7996C57.0485 13.839 56.8142 13.8767 56.5794 13.9117C56.3835 13.9409 56.1895 13.9754 55.9956 14.0157C55.8443 14.0468 55.6925 14.0712 55.5398 14.0942C55.4049 14.1149 55.2724 14.1422 55.1393 14.172C55.0362 14.1931 54.9328 14.209 54.8288 14.2247C54.6748 14.2479 54.5244 14.2773 54.373 14.3141C54.3011 14.3302 54.2297 14.3416 54.1568 14.3519C54.0329 14.3698 53.9119 14.3944 53.79 14.4222C53.6091 14.4633 53.4279 14.4991 53.2453 14.532C53.1971 14.5409 53.1489 14.5503 53.1008 14.5597C52.9226 14.5946 52.7463 14.6231 52.5647 14.6343C52.5616 14.6574 52.5616 14.6574 52.5583 14.681C52.5359 14.7736 52.4973 14.8543 52.4562 14.94C52.4478 14.9575 52.4394 14.9751 52.4308 14.9932C52.3682 15.1229 52.2994 15.2466 52.2248 15.3698C52.194 15.4218 52.1667 15.4736 52.1407 15.528C52.0987 15.6143 52.0472 15.6918 51.993 15.771C51.8933 15.9175 51.7938 16.0645 51.7196 16.2257C51.7041 16.2257 51.6886 16.2257 51.6726 16.2257C51.6668 16.2416 51.661 16.2576 51.655 16.274C51.62 16.356 51.5771 16.4297 51.5317 16.5066C51.5162 16.5066 51.5008 16.5066 51.4848 16.5066C51.4829 16.5196 51.4809 16.5326 51.4789 16.5461C51.4558 16.6171 51.4147 16.6593 51.3674 16.7172C51.3141 16.79 51.261 16.863 51.2082 16.9361C51.1602 16.9932 51.1311 17.0194 51.0622 17.0448C51.0622 17.0603 51.0622 17.0757 51.0622 17.0917C50.8581 17.2316 50.6204 17.2193 50.3814 17.1853C50.0129 17.0891 49.7117 16.6761 49.4892 16.3895C49.4719 16.3688 49.4545 16.3481 49.4367 16.3268C49.3953 16.2725 49.3953 16.2725 49.3953 16.2257C49.3803 16.2194 49.3653 16.2132 49.3498 16.2067C49.3014 16.1789 49.3014 16.1789 49.2779 16.1087C49.261 16.0918 49.244 16.0749 49.2266 16.0575C49.0555 15.887 48.9529 15.715 48.939 15.4695C48.9464 15.2721 49.0108 15.0889 49.1371 14.9385C49.1448 14.9153 49.1525 14.8922 49.1605 14.8683C49.176 14.8683 49.1915 14.8683 49.2075 14.8683C49.2131 14.8555 49.2187 14.8428 49.2245 14.8296C49.262 14.7608 49.3085 14.7048 49.3586 14.6445C49.377 14.6223 49.3954 14.6 49.4143 14.5771C49.4657 14.5172 49.4657 14.5172 49.5032 14.483C49.5513 14.4305 49.5757 14.3704 49.6066 14.3066C49.623 14.2773 49.6396 14.2482 49.6564 14.2192C49.7548 14.0493 49.8465 13.8838 49.9118 13.6981C49.9194 13.6775 49.927 13.657 49.9348 13.6358C49.9508 13.5924 49.9666 13.549 49.9821 13.5056C49.9976 13.4631 50.0135 13.4208 50.03 13.3787C50.0865 13.2326 50.1232 13.0878 50.1534 12.9342C50.1701 12.8556 50.1701 12.8556 50.1934 12.7765C50.22 12.6809 50.2361 12.5864 50.2508 12.4884C50.2552 12.4597 50.2552 12.4597 50.2596 12.4303C50.2658 12.3898 50.272 12.3493 50.2781 12.3088C50.2874 12.2476 50.297 12.1866 50.3068 12.1255C50.3387 11.9232 50.3658 11.7252 50.3718 11.5203C50.3831 11.439 50.4119 11.3822 50.4518 11.3109C50.4615 11.2911 50.4712 11.2713 50.4811 11.2509C50.5552 11.1481 50.6547 11.0769 50.7805 11.0535C50.9545 11.0325 51.0906 11.0818 51.25 11.1471C51.2686 11.1538 51.2871 11.1606 51.3062 11.1676C51.6979 11.3126 52.1052 11.5554 52.4239 11.8258C52.4239 11.8412 52.4239 11.8567 52.4239 11.8726C52.4408 11.8779 52.4578 11.8832 52.4752 11.8887C52.555 11.9258 52.5988 11.9723 52.6587 12.0364C52.679 12.0567 52.6993 12.077 52.7203 12.0979C52.7387 12.1162 52.7571 12.1346 52.776 12.1535C52.7901 12.166 52.8041 12.1786 52.8186 12.1915C52.8465 12.2237 52.8465 12.2237 52.8465 12.2939C52.862 12.2939 52.8775 12.2939 52.8934 12.2939C52.8934 12.3093 52.8934 12.3248 52.8934 12.3407C52.9131 12.3378 52.9328 12.335 52.9531 12.3321C53.1262 12.308 53.2989 12.2886 53.473 12.2734C53.7014 12.2532 53.9274 12.2211 54.1542 12.1877C54.3133 12.1644 54.472 12.1443 54.6322 12.13C54.8445 12.1111 55.0542 12.0795 55.2648 12.0472C55.4221 12.0235 55.5787 12.0036 55.7371 11.9896C55.9393 11.9718 56.138 11.9402 56.3381 11.9068C56.4888 11.8821 56.6386 11.8625 56.7907 11.8492C56.9688 11.8336 57.144 11.8083 57.3204 11.779C57.4908 11.7507 57.6604 11.725 57.8325 11.7088C58.0398 11.6892 58.245 11.6589 58.4509 11.6277C58.6511 11.5975 58.8516 11.5705 59.0525 11.5451C59.1623 11.5311 59.2715 11.5159 59.3805 11.4967C59.4892 11.4776 59.598 11.4654 59.7077 11.4543C59.8793 11.4366 60.0485 11.4104 60.2184 11.3811C60.3824 11.3528 60.5456 11.3273 60.7114 11.3109C60.9023 11.2921 61.0902 11.2606 61.2792 11.2281C61.415 11.205 61.5502 11.1849 61.6872 11.1705C61.8658 11.1516 62.0417 11.121 62.2185 11.0894C62.3731 11.0619 62.5279 11.0381 62.6835 11.0169C62.8525 10.9937 63.0189 10.9656 63.1858 10.9304C63.2602 10.9152 63.3346 10.9019 63.4094 10.8891C63.7538 10.8292 64.1117 10.7249 64.4208 10.5605C64.5465 10.4948 64.684 10.4604 64.8199 10.4216C64.8461 10.4132 64.8724 10.4049 64.8994 10.3962C65.3222 10.2892 65.7212 10.4518 66.0877 10.6556Z" fill="#F5F5F5"/>
<path d="M56.5323 0.00705295C56.5599 0.0073075 56.5599 0.0073075 56.5881 0.0075672C56.933 0.0113463 57.2558 0.0581273 57.5921 0.133197C57.6603 0.147705 57.7286 0.159967 57.7973 0.171794C57.8852 0.187366 57.9663 0.206816 58.0495 0.239628C58.1249 0.268669 58.1996 0.295511 58.277 0.318616C58.6377 0.437407 58.9376 0.664904 59.2322 0.896398C59.2482 0.908676 59.2643 0.920955 59.2808 0.933606C59.4093 1.03638 59.5074 1.16505 59.6078 1.29426C59.6224 1.31203 59.637 1.3298 59.652 1.34811C59.9195 1.69427 59.9868 2.08342 59.9365 2.51126C59.8814 2.82541 59.7078 3.10218 59.4905 3.33039C59.7448 3.29799 59.9953 3.26169 60.2441 3.19959C60.3414 3.17553 60.4374 3.15688 60.5367 3.14316C60.6693 3.12465 60.7963 3.09395 60.9257 3.06034C61.0401 3.03095 61.1538 3.01022 61.2705 2.99241C61.3787 2.97346 61.4849 2.94734 61.5917 2.92161C61.7033 2.89487 61.815 2.87102 61.9277 2.84915C62.0557 2.82425 62.1817 2.79502 62.308 2.76267C62.4082 2.73785 62.5092 2.71702 62.6103 2.69584C62.7518 2.66581 62.8927 2.63292 63.0337 2.60022C63.8458 2.41392 63.8458 2.41392 64.1954 2.58842C64.3046 2.65981 64.4043 2.74144 64.4911 2.83891C64.4911 2.85436 64.4911 2.86981 64.4911 2.88572C64.5052 2.89103 64.5192 2.89634 64.5337 2.90181C64.6003 2.94164 64.619 2.98137 64.6555 3.04955C64.6773 3.08792 64.6773 3.08792 64.6995 3.12707C64.7075 3.14125 64.7155 3.15543 64.7238 3.17004C64.7403 3.19796 64.7575 3.22545 64.7757 3.25232C65.0719 3.6918 65.35 4.37365 65.3128 4.89845C65.2927 4.99419 65.2556 5.04975 65.1837 5.11786C65.0902 5.17842 65.0182 5.18263 64.9089 5.18439C64.8634 5.18523 64.8634 5.18523 64.8171 5.18609C64.8008 5.18635 64.7845 5.18661 64.7677 5.18688C64.6795 5.18831 64.5914 5.19021 64.5033 5.19205C64.4847 5.19243 64.4661 5.19281 64.4469 5.1932C63.7728 5.20706 63.1073 5.23637 62.4378 5.32197C62.2863 5.34103 62.1347 5.3548 61.9825 5.36735C61.7782 5.38424 61.576 5.40638 61.373 5.43527C61.1444 5.4668 60.9157 5.49597 60.6863 5.52157C60.5145 5.54078 60.3438 5.56186 60.1732 5.58987C60.0843 5.60301 59.9951 5.61192 59.9057 5.62104C59.7095 5.64133 59.5161 5.67335 59.3218 5.70678C59.186 5.7299 59.0508 5.75 58.9138 5.76439C58.7322 5.78353 58.5535 5.81502 58.3739 5.84722C58.2449 5.87011 58.1166 5.88992 57.9864 5.90481C57.8137 5.92474 57.6438 5.95565 57.473 5.98764C57.3503 6.01039 57.2284 6.03019 57.1046 6.04523C56.9486 6.06454 56.7962 6.09464 56.6425 6.12636C56.506 6.15426 56.3693 6.17797 56.2315 6.19882C56.0701 6.22327 55.9105 6.25241 55.7506 6.28531C55.6602 6.30336 55.5696 6.31933 55.4788 6.33486C55.3066 6.36458 55.1351 6.39749 54.9637 6.4314C54.9397 6.43611 54.9156 6.44083 54.8908 6.44569C54.7713 6.46953 54.653 6.49556 54.535 6.52574C54.4476 6.54803 54.3609 6.56719 54.272 6.58233C54.1199 6.6087 53.9707 6.64609 53.8212 6.68382C53.7713 6.6964 53.7213 6.70883 53.6713 6.72125C53.5138 6.76059 53.3573 6.80174 53.202 6.84912C52.8952 6.94193 52.5733 6.95975 52.2776 6.81546C52.2394 6.79415 52.2023 6.77097 52.1655 6.74735C52.1655 6.7319 52.1655 6.71646 52.1655 6.70054C52.1525 6.69861 52.1394 6.69668 52.1259 6.69469C52.0064 6.65607 51.9226 6.55409 51.8368 6.4665C51.8175 6.44768 51.7981 6.42885 51.7781 6.40946C51.6021 6.22954 51.6021 6.22954 51.6021 6.16225C51.5788 6.15453 51.5556 6.14681 51.5316 6.13885C51.4886 6.07906 51.4886 6.07906 51.4421 6.00135C51.4339 5.98766 51.4257 5.97397 51.4173 5.95986C51.3925 5.91827 51.3681 5.87648 51.3438 5.8346C51.3305 5.81176 51.3172 5.78892 51.3036 5.76539C51.2264 5.62855 51.1643 5.48996 51.109 5.34312C51.1006 5.3252 51.0922 5.30728 51.0836 5.28882C51.0558 5.20765 51.0541 5.13621 51.0533 5.05057C51.0526 5.0204 51.052 4.99023 51.0513 4.95915C51.0636 4.86326 51.0869 4.82458 51.156 4.75802C51.1715 4.75802 51.187 4.75802 51.203 4.75802C51.203 4.74258 51.203 4.72713 51.203 4.71122C51.2722 4.67218 51.3256 4.65763 51.4047 4.65289C51.4375 4.65067 51.4375 4.65067 51.4709 4.64841C51.5068 4.64619 51.5068 4.64619 51.5434 4.64393C51.8381 4.6232 52.131 4.59159 52.4245 4.55819C52.4605 4.5541 52.4965 4.55001 52.5325 4.54593C52.5498 4.54396 52.5671 4.54198 52.585 4.53995C52.717 4.52505 52.8491 4.51248 52.9814 4.50058C53.1756 4.48262 53.3669 4.45098 53.5591 4.41776C53.6902 4.39515 53.8206 4.37525 53.9527 4.36016C54.125 4.34015 54.2944 4.3092 54.4648 4.27733C54.5869 4.25469 54.7084 4.23483 54.8317 4.21974C54.9927 4.19978 55.1508 4.16979 55.31 4.13866C55.4705 4.10748 55.6314 4.08068 55.7933 4.05683C55.881 4.04367 55.9673 4.02819 56.0538 4.00837C56.1416 3.98832 56.2285 3.97533 56.3181 3.96522C56.4728 3.9456 56.6233 3.91622 56.7755 3.88287C56.9538 3.84429 57.1331 3.81354 57.3132 3.78431C57.4247 3.76577 57.5295 3.74495 57.6357 3.70485C57.5319 3.441 57.4129 3.1879 57.2849 2.93496C57.2612 2.8878 57.2377 2.84049 57.2144 2.79311C57.1208 2.6033 57.0218 2.41733 56.9176 2.23308C56.8772 2.16149 56.8376 2.0902 56.8009 2.01658C56.7639 1.94331 56.7225 1.87444 56.679 1.80476C56.6708 1.79149 56.6625 1.77823 56.654 1.76456C56.5901 1.66198 56.5251 1.56005 56.4598 1.45836C56.4258 1.405 56.3923 1.35146 56.3591 1.29764C56.2327 1.09331 56.1035 0.893138 55.9519 0.706059C55.8442 0.571521 55.7796 0.445456 55.7825 0.270346C55.8111 0.171404 55.8515 0.105401 55.9412 0.051575C56.1168 -0.0209914 56.3456 0.00294277 56.5323 0.00705295Z" fill="#F5F5F5"/>
<path d="M61.7677 14.3535C61.7853 14.3655 61.8029 14.3776 61.821 14.39C61.8344 14.4012 61.8478 14.4123 61.8617 14.4237C61.8617 14.4391 61.8617 14.4546 61.8617 14.4705C61.8824 14.4798 61.8824 14.4798 61.9037 14.4893C62.0398 14.5627 62.1368 14.6975 62.226 14.8205C62.2727 14.8849 62.322 14.9472 62.3712 15.0098C62.406 15.0622 62.4255 15.1141 62.4486 15.1726C62.4627 15.2009 62.4771 15.2289 62.4918 15.2569C62.622 15.5052 62.7446 15.7497 62.7068 16.0386C62.6591 16.1602 62.5685 16.2169 62.451 16.2689C62.1947 16.3639 61.9151 16.373 61.6446 16.3741C61.5953 16.3743 61.5459 16.3747 61.4966 16.3753C61.3918 16.3764 61.2871 16.3772 61.1823 16.3779C61.0607 16.3788 60.939 16.3797 60.8174 16.3811C60.7695 16.3816 60.7217 16.3818 60.6738 16.3819C60.4633 16.3841 60.2616 16.4043 60.0539 16.4364C60.0611 16.449 60.0683 16.4616 60.0758 16.4745C60.1679 16.6409 60.165 16.8123 60.1478 16.9981C60.1404 17.0231 60.133 17.0482 60.1253 17.074C60.1003 17.164 60.087 17.2517 60.0774 17.3443C60.0755 17.3618 60.0736 17.3792 60.0716 17.3972C60.0676 17.4342 60.0636 17.4712 60.0598 17.5083C60.0541 17.5624 60.0481 17.6164 60.0422 17.6705C59.9823 18.2221 59.9532 18.7714 59.9543 19.3262C59.9544 19.4284 59.9542 19.5307 59.9539 19.6329C59.953 19.9231 59.9525 20.2132 59.9528 20.5034C59.953 20.6649 59.9527 20.8265 59.952 20.988C59.9516 21.0727 59.9514 21.1575 59.9518 21.2422C59.9551 21.9962 59.8393 22.6201 59.2924 23.1709C59.1774 23.2841 59.0576 23.386 58.927 23.481C58.9057 23.4983 58.8844 23.5157 58.8624 23.5336C58.8077 23.576 58.7518 23.6096 58.6922 23.6448C58.6688 23.6592 58.6454 23.6736 58.6212 23.6885C58.2808 23.8918 57.8503 24.0699 57.4479 23.9724C57.1608 23.8633 56.9742 23.6291 56.7884 23.3955C56.7463 23.3416 56.7463 23.3416 56.7039 23.3024C56.6732 23.2703 56.6732 23.2703 56.6497 23.2001C56.6112 23.1681 56.5719 23.137 56.5323 23.1065C56.475 23.0509 56.4193 22.994 56.3636 22.9368C56.2018 22.7791 56.0315 22.6352 55.8527 22.4972C55.761 22.4262 55.6726 22.3528 55.5872 22.2742C55.5455 22.2382 55.5455 22.2382 55.4905 22.2076C55.4216 22.166 55.3628 22.1182 55.3012 22.0665C55.2307 22.008 55.1617 21.9514 55.084 21.9027C55.0661 21.8906 55.0482 21.8785 55.0297 21.8661C55.0297 21.8507 55.0297 21.8352 55.0297 21.8193C55.0014 21.8106 55.0014 21.8106 54.9725 21.8017C54.9527 21.7921 54.9328 21.7824 54.9124 21.7725C54.9036 21.7415 54.8958 21.7103 54.8889 21.6789C54.8578 21.6629 54.8265 21.6473 54.795 21.6321C54.7465 21.5699 54.7481 21.5351 54.7495 21.4551C54.7715 21.3746 54.7715 21.3746 54.8168 21.3354C54.9193 21.2913 55.0138 21.2925 55.1244 21.2906C55.172 21.2891 55.2197 21.2877 55.2674 21.2862C55.3416 21.2843 55.4159 21.2825 55.4901 21.2808C56.2622 21.2674 56.2622 21.2674 56.925 20.915C57.0465 20.7721 57.0918 20.5916 57.1427 20.4151C57.1511 20.3876 57.1511 20.3876 57.1596 20.3596C57.2509 20.0161 57.2168 19.622 57.2162 19.27C57.2161 19.1887 57.2162 19.1074 57.2164 19.0261C57.2166 18.5019 57.2069 17.9838 57.1295 17.4647C57.1212 17.4076 57.1129 17.3504 57.1049 17.2932C57.0999 17.2584 57.0948 17.2235 57.0896 17.1888C57.0725 17.0697 57.0703 16.9546 57.0723 16.8343C57.0498 16.8388 57.0273 16.8433 57.0041 16.848C56.8385 16.8806 56.6739 16.9088 56.5059 16.9264C56.3533 16.9427 56.2033 16.9669 56.0525 16.9952C54.8041 17.2271 54.8041 17.2271 54.4825 17.008C54.4347 16.968 54.3917 16.9264 54.3489 16.8811C54.3362 16.868 54.3234 16.855 54.3103 16.8415C54.1845 16.7047 54.0943 16.545 54.0437 16.3662C54.0282 16.3662 54.0127 16.3662 53.9967 16.3662C53.5788 15.6112 53.5788 15.6112 53.6622 15.2926C53.6983 15.2314 53.7179 15.2179 53.7855 15.196C53.9081 15.1754 54.028 15.1678 54.152 15.1642C54.1924 15.1628 54.2328 15.1613 54.2731 15.1599C54.2943 15.1591 54.3155 15.1583 54.3373 15.1575C54.8205 15.1394 55.2963 15.0928 55.7755 15.0299C55.9135 15.0121 56.0517 14.9978 56.1902 14.9847C56.3657 14.9679 56.539 14.9452 56.7128 14.9152C56.8774 14.8877 57.0413 14.8622 57.2073 14.845C57.3788 14.8269 57.5467 14.7955 57.7158 14.7621C57.8307 14.7396 57.9451 14.7197 58.0613 14.7045C58.2095 14.6847 58.3546 14.6548 58.5007 14.6233C58.6171 14.5982 58.7335 14.5751 58.8507 14.5539C59.1692 14.4953 59.4864 14.4271 59.7999 14.346C59.8811 14.3265 59.963 14.3107 60.0451 14.295C60.1454 14.2755 60.2427 14.2543 60.34 14.2233C60.7894 14.0842 61.375 14.0671 61.7677 14.3535Z" fill="#F5F5F5"/>
<path d="M60.9461 5.88125C61.0405 5.92317 61.1245 5.98176 61.2058 6.04507C61.2582 6.0857 61.3105 6.12331 61.3661 6.15962C61.4391 6.2089 61.5054 6.26182 61.5726 6.31861C61.6435 6.37845 61.7144 6.43789 61.7874 6.49514C62.0225 6.67946 62.2998 6.91051 62.3648 7.21581C62.3794 7.43944 62.2931 7.69397 62.215 7.90074C62.1643 8.03674 62.1282 8.17411 62.095 8.31524C62.0889 8.34071 62.0829 8.36617 62.0766 8.3924C62.0288 8.59799 61.9933 8.80374 61.9634 9.01255C61.9479 9.11546 61.9286 9.21772 61.9098 9.32009C61.8913 9.42273 61.8771 9.52519 61.8646 9.62878C61.8371 9.82996 61.7804 10.0597 61.6739 10.2344C61.639 10.2575 61.639 10.2575 61.6034 10.2812C61.5957 10.3043 61.5879 10.3275 61.58 10.3514C61.5412 10.3754 61.502 10.3987 61.4626 10.4216C61.448 10.4365 61.4335 10.4515 61.4185 10.4669C61.2018 10.6766 60.8449 10.7904 60.5704 10.9131C60.5476 10.9234 60.5249 10.9336 60.5014 10.9442C60.3279 11.0155 60.1304 11.055 59.95 10.9844C59.8542 10.9275 59.7774 10.8541 59.7018 10.7726C59.6814 10.7533 59.6611 10.734 59.6401 10.7141C59.5844 10.6556 59.5844 10.6556 59.5492 10.5957C59.5073 10.5279 59.4591 10.4942 59.3966 10.445C59.2557 10.2979 59.2557 10.2979 59.2557 10.2344C59.0638 10.1185 58.7556 10.1922 58.5426 10.2153C58.5143 10.2184 58.486 10.2214 58.4569 10.2245C58.2063 10.2533 57.963 10.3025 57.718 10.3613C57.6577 10.3751 57.5972 10.3872 57.5364 10.3988C57.4451 10.4167 57.3575 10.4398 57.2689 10.4684C57.1871 10.4943 57.1061 10.5195 57.0224 10.5386C56.921 10.5624 56.8249 10.5998 56.7277 10.6368C56.6732 10.6556 56.6732 10.6556 56.6262 10.6556C56.6243 10.6836 56.6224 10.7116 56.6204 10.7405C56.5906 10.9956 56.5186 11.2554 56.3445 11.4514C56.2924 11.4699 56.2924 11.4699 56.2506 11.4748C56.2506 11.4902 56.2506 11.5056 56.2506 11.5216C56.0704 11.6143 55.8736 11.5646 55.6871 11.5157C55.6576 11.5085 55.6576 11.5085 55.6275 11.5012C55.5088 11.4709 55.3998 11.4317 55.2891 11.3792C55.2396 11.3571 55.1901 11.3402 55.1384 11.3241C54.8514 11.2317 54.4901 11.0959 54.3431 10.8194C54.2905 10.7128 54.2757 10.6095 54.2748 10.4914C54.2746 10.4685 54.2743 10.4456 54.2741 10.422C54.2739 10.3973 54.2737 10.3727 54.2736 10.3473C54.273 10.2939 54.2723 10.2405 54.2717 10.1872C54.2712 10.1453 54.2712 10.1453 54.2708 10.1026C54.2623 9.41114 54.2287 8.7469 54.0793 8.06942C54.0636 7.9936 54.0534 7.91813 54.0437 7.84132C54.0122 7.62569 53.928 7.43882 53.8134 7.25476C53.7423 7.13797 53.7143 7.06973 53.7385 6.93442C53.814 6.80771 53.9317 6.78566 54.0672 6.74719C54.3055 6.70023 54.5428 6.69186 54.7847 6.69307C54.8021 6.6931 54.8196 6.69314 54.8375 6.69317C55.1254 6.69421 55.4046 6.71208 55.6871 6.77059C55.7051 6.77422 55.7231 6.77786 55.7416 6.7816C56.0344 6.84254 56.0344 6.84254 56.1275 6.91364C56.2232 6.96918 56.2658 6.96176 56.3737 6.94301C56.3898 6.94039 56.4059 6.93777 56.4225 6.93508C56.4739 6.92661 56.5251 6.91738 56.5764 6.90809C56.6266 6.89951 56.6768 6.8911 56.727 6.88269C56.7605 6.87706 56.7941 6.87135 56.8276 6.86557C56.9435 6.84578 57.0595 6.82985 57.1762 6.81603C57.3177 6.7991 57.4566 6.77712 57.5961 6.74865C57.7571 6.71688 57.9181 6.68829 58.0804 6.66381C58.2337 6.64061 58.3847 6.61259 58.5358 6.57742C58.612 6.56196 58.6875 6.54998 58.7644 6.53875C58.9256 6.51451 59.0837 6.48108 59.2425 6.4444C59.2691 6.4385 59.2956 6.43261 59.323 6.42653C59.4508 6.3972 59.563 6.36691 59.6783 6.30252C59.7218 6.29168 59.7652 6.28089 59.8088 6.27043C60.0309 6.21338 60.1914 6.14734 60.3665 6.00265C60.5479 5.85652 60.7194 5.83593 60.9461 5.88125ZM58.4208 8.16897C58.4043 8.17105 58.3879 8.17313 58.3709 8.17528C58.1382 8.20479 57.9091 8.24258 57.6804 8.29495C57.5981 8.31319 57.5168 8.32703 57.4333 8.33865C57.2969 8.35804 57.1648 8.38886 57.0311 8.42137C56.911 8.45031 56.7911 8.47319 56.6687 8.49095C56.5828 8.50597 56.4994 8.52753 56.4149 8.54928C56.4221 8.64193 56.4295 8.73457 56.437 8.8272C56.439 8.8536 56.441 8.88 56.4431 8.90719C56.4452 8.93239 56.4472 8.95758 56.4493 8.98353C56.4512 9.00682 56.453 9.0301 56.4549 9.0541C56.4587 9.11109 56.4587 9.11109 56.4854 9.15778C56.6337 9.13476 56.7805 9.10867 56.927 9.07587C57.0384 9.05151 57.1485 9.03273 57.2616 9.01882C57.4256 8.99862 57.5867 8.96884 57.7485 8.93536C57.8919 8.90666 58.0357 8.88837 58.181 8.87209C58.376 8.85001 58.57 8.82111 58.7641 8.7921C58.8008 8.78667 58.8374 8.78124 58.8741 8.77582C58.9622 8.76278 59.0502 8.74967 59.1383 8.73651C59.15 8.69245 59.1615 8.64835 59.173 8.60423C59.1794 8.57967 59.1858 8.55511 59.1925 8.52981C59.2146 8.42876 59.2286 8.32404 59.2087 8.22163C59.1637 8.164 59.1392 8.1517 59.0679 8.12801C58.8507 8.11348 58.6358 8.14106 58.4208 8.16897Z" fill="#F5F5F5"/>
<path d="M4.7179 9.54793C4.74811 9.54777 4.77832 9.54762 4.80945 9.54746C4.87293 9.54718 4.93642 9.54709 4.99991 9.54712C5.06392 9.54712 5.12791 9.5468 5.19192 9.54616C5.55068 9.54262 5.89442 9.54833 6.24368 9.63748C6.29194 9.64972 6.34036 9.66073 6.38897 9.67148C6.68674 9.73866 6.9732 9.87253 7.20632 10.0707C7.22729 10.087 7.22729 10.087 7.24869 10.1037C7.28259 10.1304 7.31506 10.1589 7.34718 10.1877C7.34718 10.2031 7.34718 10.2186 7.34718 10.2345C7.36074 10.2401 7.3743 10.2456 7.38827 10.2513C7.56702 10.3528 7.66169 10.5624 7.72282 10.7494C7.73111 10.7694 7.7394 10.7894 7.74795 10.81C7.86111 11.2238 7.74949 11.6355 7.55114 12C7.4669 12.1356 7.36472 12.2504 7.25327 12.3642C7.23534 12.3831 7.23534 12.3831 7.21705 12.4023C7.19076 12.4294 7.16339 12.4554 7.13589 12.4813C7.12284 12.4936 7.1098 12.5059 7.09636 12.5187C6.97899 12.5895 6.82208 12.5666 6.68982 12.5515C6.61656 12.5227 6.56227 12.4843 6.502 12.4345C6.48311 12.4238 6.46423 12.4132 6.44477 12.4023C6.28434 12.3009 6.14067 12.1747 5.99577 12.0527C5.98093 12.0403 5.96608 12.028 5.95079 12.0153C5.91449 11.9844 5.87944 11.9521 5.84463 11.9196C5.84463 11.9041 5.84463 11.8887 5.84463 11.8728C5.83107 11.8708 5.81752 11.8689 5.80355 11.8669C5.73453 11.844 5.70691 11.8085 5.65681 11.7557C5.52327 11.6371 5.38232 11.5281 5.24138 11.4184C5.22826 11.4081 5.21515 11.3979 5.20164 11.3873C5.16637 11.3599 5.1307 11.333 5.09501 11.3061C5.07897 11.2923 5.06293 11.2785 5.0464 11.2643C5.0464 11.2488 5.0464 11.2334 5.0464 11.2175C5.02946 11.2117 5.01251 11.2059 4.99505 11.1999C4.92307 11.168 4.87177 11.1273 4.81163 11.077C4.78839 11.0655 4.78839 11.0655 4.76468 11.0536C4.76468 11.0382 4.76468 11.0227 4.76468 11.0068C4.75148 11.0007 4.73829 10.9945 4.72469 10.9882C4.57386 10.9094 4.43863 10.7988 4.30311 10.6965C4.22915 10.6416 4.15437 10.5879 4.07943 10.5344C4.06547 10.5243 4.05151 10.5143 4.03713 10.504C3.97767 10.4616 3.91839 10.4211 3.8553 10.3842C3.71753 10.2995 3.62073 10.1509 3.56733 10.0005C3.5508 9.89424 3.55538 9.8543 3.61594 9.76478C3.68431 9.687 3.75969 9.6634 3.85933 9.64355C3.88932 9.63668 3.91931 9.6298 3.95021 9.62271C4.20626 9.57359 4.45721 9.54841 4.7179 9.54793Z" fill="#F5F5F5"/>
<path d="M13.9442 9.25162C13.9611 9.25512 13.9779 9.25863 13.9953 9.26224C14.372 9.34217 14.7121 9.48288 15.0007 9.74309C15.0195 9.75951 15.0384 9.77592 15.0579 9.79283C15.3122 10.0773 15.4015 10.4006 15.3867 10.7756C15.3502 11.2858 15.063 11.7604 14.6955 12.1069C14.5879 12.1819 14.4706 12.1916 14.3433 12.1771C14.2375 12.1539 14.1496 12.1239 14.0616 12.0601C14.0616 12.0446 14.0616 12.0292 14.0616 12.0133C14.0479 12.011 14.0343 12.0087 14.0203 12.0063C13.9571 11.9866 13.9252 11.9585 13.8767 11.9138C13.8604 11.899 13.8441 11.8842 13.8272 11.869C13.8116 11.8548 13.796 11.8406 13.7798 11.826C13.755 11.8054 13.7301 11.7849 13.705 11.7646C13.6401 11.7099 13.5817 11.6519 13.5216 11.592C13.3989 11.4788 13.2725 11.3735 13.1378 11.2748C13.125 11.2636 13.1122 11.2524 13.099 11.2409C13.099 11.2255 13.099 11.21 13.099 11.1941C13.0864 11.1927 13.0738 11.1912 13.0608 11.1897C12.9981 11.1683 12.9582 11.1355 12.9087 11.0924C12.8527 11.0437 12.7954 10.9968 12.738 10.9499C12.7048 10.9227 12.7048 10.9227 12.671 10.895C12.5991 10.8376 12.5255 10.7833 12.4502 10.7305C12.4396 10.7213 12.429 10.7121 12.4181 10.7027C12.4181 10.6872 12.4181 10.6718 12.4181 10.6558C12.4046 10.6539 12.391 10.652 12.3771 10.65C12.3095 10.6275 12.2795 10.5894 12.2303 10.5388C12.1803 10.5099 12.1803 10.5099 12.1364 10.492C12.1364 10.4766 12.1364 10.4611 12.1364 10.4452C12.1243 10.4399 12.1122 10.4346 12.0997 10.4291C12.0215 10.3871 11.9452 10.3399 11.8782 10.2814C11.8782 10.2659 11.8782 10.2505 11.8782 10.2346C11.8646 10.2326 11.8511 10.2307 11.8371 10.2287C11.7695 10.2063 11.7395 10.1681 11.6904 10.1176C11.6753 10.1103 11.6603 10.1031 11.6449 10.0956C11.5139 10.0283 11.3618 9.86052 11.3147 9.71969C11.3061 9.62679 11.3022 9.57476 11.3545 9.4958C11.5581 9.28154 11.9569 9.27554 12.2326 9.23773C12.2886 9.22991 12.3444 9.22128 12.4002 9.21203C12.9 9.13812 13.4508 9.14526 13.9442 9.25162Z" fill="#F5F5F5"/>
<path d="M13.0945 6.53451C13.1744 6.53358 13.254 6.53472 13.3338 6.53653C13.3604 6.53678 13.3604 6.53678 13.3874 6.53704C13.9492 6.54351 14.6145 6.65952 15.037 7.06265C15.2691 7.31368 15.3416 7.59059 15.3351 7.92439C15.3074 8.34616 15.1219 8.85736 14.8129 9.15775C14.6986 9.22222 14.5906 9.254 14.4607 9.22796C14.2432 9.15218 14.0729 9.01051 13.8985 8.86548C13.8339 8.80805 13.8339 8.80805 13.7799 8.78329C13.7799 8.76784 13.7799 8.7524 13.7799 8.73648C13.7663 8.73455 13.7528 8.73262 13.7388 8.73063C13.6712 8.70818 13.6412 8.67002 13.5921 8.61946C13.5609 8.60349 13.5296 8.58785 13.4981 8.57266C13.4886 8.56297 13.4791 8.55329 13.4693 8.54331C13.411 8.48596 13.346 8.43775 13.281 8.38835C13.2674 8.37794 13.2538 8.36754 13.2398 8.35681C13.1681 8.30214 13.0957 8.24911 13.0213 8.1982C13.0004 8.18275 12.9796 8.1673 12.9582 8.15139C12.9582 8.13594 12.9582 8.1205 12.9582 8.10458C12.9419 8.09903 12.9255 8.09348 12.9087 8.08776C12.8285 8.05237 12.762 8.00506 12.6926 7.95246C12.6797 7.94301 12.6668 7.93357 12.6535 7.92384C12.621 7.8995 12.5899 7.87344 12.5591 7.84714C12.5591 7.83169 12.5591 7.81625 12.5591 7.80033C12.5411 7.79406 12.5232 7.78778 12.5048 7.78132C12.4424 7.75387 12.4173 7.73113 12.3712 7.68331C12.3538 7.67315 12.3364 7.66298 12.3184 7.6525C12.2243 7.5951 12.1436 7.52366 12.0594 7.45293C12.0009 7.40668 11.9424 7.36989 11.8782 7.33226C11.8416 7.30556 11.8054 7.27825 11.7696 7.25034C11.7519 7.23658 11.7342 7.22283 11.7159 7.20865C11.5866 7.1025 11.5866 7.1025 11.573 7.0046C11.5636 6.83019 11.5636 6.83019 11.62 6.74716C11.7823 6.65924 11.9734 6.62964 12.1541 6.60235C12.1793 6.59843 12.2046 6.59452 12.2306 6.59049C12.5182 6.54847 12.8045 6.54104 13.0945 6.53451Z" fill="#F5F5F5"/>
</svg>
